<?xml version="1.0" encoding="UTF-8"?>
<svg width="16px" height="14px" viewBox="0 0 16 14" version="1.1" xmlns="http://www.w3.org/2000/svg" xmlns:xlink="http://www.w3.org/1999/xlink">
    <!-- Generator: Sketch 61.2 (89653) - https://sketch.com -->
    <title>icon/image/camera_alt_24px</title>
    <desc>Created with Sketch.</desc>
    <defs>
        <path d="M9,11.25 C10.2426407,11.25 11.25,10.2426407 11.25,9 C11.25,7.75735931 10.2426407,6.75 9,6.75 C7.75735931,6.75 6.75,7.75735931 6.75,9 C6.75,10.2426407 7.75735931,11.25 9,11.25 Z M15,3 L12.6225,3 L11.25,1.5 L6.75,1.5 L5.3775,3 L3,3 C2.175,3 1.5,3.675 1.5,4.5 L1.5,13.5 C1.5,14.325 2.175,15 3,15 L15,15 C15.825,15 16.5,14.325 16.5,13.5 L16.5,4.5 C16.5,3.675 15.825,3 15,3 Z M9,12.75 C6.93,12.75 5.25,11.07 5.25,9 C5.25,6.93 6.93,5.25 9,5.25 C11.07,5.25 12.75,6.93 12.75,9 C12.75,11.07 11.07,12.75 9,12.75 Z" id="path-1"></path>
    </defs>
    <g id="Assets" stroke="none" stroke-width="1" fill="none" fill-rule="evenodd">
        <g id="gmdscn-buttons" transform="translate(-17.000000, -74.000000)">
            <g id="icon/image/camera_alt_24px" transform="translate(16.000000, 73.000000)">
                <mask id="mask-2" fill="white">
                    <use xlink:href="#path-1"></use>
                </mask>
                <g fill-rule="nonzero"></g>
                <g id="✱-/-Color-/-Icons-/-White-/-Active" mask="url(#mask-2)" fill="#FFFFFF" fill-rule="evenodd">
                    <rect id="Rectangle-13" x="0" y="0" width="18" height="18"></rect>
                </g>
            </g>
        </g>
    </g>
</svg>