<?xml version="1.0" encoding="utf-8"?>
<svg width="36px" height="36px" preserveAspectRatio="xMidYMid meet" viewBox="0 0 36 36" xmlns="http://www.w3.org/2000/svg">
  <defs>
    <radialGradient gradientUnits="userSpaceOnUse" cx="18" cy="18" r="18" id="gradient-0" gradientTransform="matrix(1, 0, 0, 1, 0, 0)">
      <stop offset="0" style=""/>
      <stop offset="1" style="stop-color: rgba(0, 0, 0, 0);"/>
    </radialGradient>
  </defs>
  <circle style="fill: url(#gradient-0);" cx="18" cy="18" r="18"/>
  <circle style="fill: rgb(255, 255, 255);" cx="18" cy="18" r="15"/>
  <path fill="currentColor" d="M 16.344 9.868 L 16.344 11.752 L 18.012 12.858 L 18.012 11.536 L 26.344 11.536 L 26.344 24.036 L 22.18 24.036 L 22.18 25.7 L 28.012 25.7 L 28.012 9.868 L 16.344 9.868 M 14.262 12.368 L 8.012 16.536 L 8.012 25.7 L 20.512 25.7 L 20.512 16.536 L 14.262 12.368 M 19.68 13.2 L 19.68 13.978 L 21.022 14.868 L 21.344 14.868 L 21.344 13.2 L 19.68 13.2 M 23.012 13.2 L 23.012 14.868 L 24.68 14.868 L 24.68 13.2 L 23.012 13.2 M 14.262 14.452 L 18.844 17.368 L 18.844 24.036 L 16.344 24.036 L 16.344 19.036 L 12.18 19.036 L 12.18 24.036 L 9.68 24.036 L 9.68 17.368 L 14.262 14.452 M 23.012 16.536 L 23.012 18.2 L 24.68 18.2 L 24.68 16.536 L 23.012 16.536 M 23.012 19.868 L 23.012 21.536 L 24.68 21.536 L 24.68 19.868 L 23.012 19.868 Z"/>
</svg>