<?xml version="1.0" encoding="UTF-8"?>
<svg width="248px" height="55px" viewBox="0 0 248 55" version="1.1" xmlns="http://www.w3.org/2000/svg" xmlns:xlink="http://www.w3.org/1999/xlink">
    <!-- Generator: Sketch 61.2 (89653) - https://sketch.com -->
    <title>gemeindescan-logo</title>
    <desc>Created with Sketch.</desc>
    <defs>
        <polygon id="path-1" points="7.38964445e-13 23.4568889 175.870222 23.4568889 175.870222 1.77635684e-15 7.38964445e-13 1.77635684e-15"></polygon>
    </defs>
    <g id="Assets" stroke="none" stroke-width="1" fill="none" fill-rule="evenodd">
        <g id="gmdscn-logo">
            <g id="gemeindescan-logo">
                <rect id="Rectangle" fill="#FFFFFF" x="0" y="0" width="248" height="55"></rect>
                <g id="Group" stroke-width="1" transform="translate(18.000000, 16.000178)">
                    <path d="M11.7285333,7.92275556 C9.63075556,7.92275556 7.9232,9.63031111 7.9232,11.7289778 C7.9232,13.8267556 9.63075556,15.5343111 11.7285333,15.5343111 C13.8272,15.5343111 15.5347556,13.8267556 15.5347556,11.7289778 C15.5347556,9.63031111 13.8272,7.92275556 11.7285333,7.92275556 M11.7285333,17.7565333 C8.40497778,17.7565333 5.70097778,15.0525333 5.70097778,11.7289778 C5.70097778,8.40453333 8.40497778,5.70053333 11.7285333,5.70053333 C15.0520889,5.70053333 17.7569778,8.40453333 17.7569778,11.7289778 C17.7569778,15.0525333 15.0520889,17.7565333 11.7285333,17.7565333" id="Fill-1" fill="#000000"></path>
                    <path d="M22.3256889,13.4926222 L17.0954667,13.4926222 C16.4821333,13.4926222 15.9843556,12.9948444 15.9843556,12.3815111 C15.9843556,11.7681778 16.4821333,11.2704 17.0954667,11.2704 L22.3256889,11.2704 C22.9390222,11.2704 23.4368,11.7681778 23.4368,12.3815111 C23.4368,12.9948444 22.9390222,13.4926222 22.3256889,13.4926222" id="Fill-3" fill="#000000"></path>
                    <path d="M43.4550222,18.3780444 L43.2710222,16.5389333 C42.6372444,17.6011556 41.1448,18.6847111 38.8363556,18.6847111 C35.0541333,18.6847111 31.7021333,15.9051556 31.7021333,11.1220444 C31.7021333,6.35937778 35.2381333,3.57982222 38.9990222,3.57982222 C42.5145778,3.57982222 44.7634667,5.60293333 45.5394667,7.99493333 L43.2301333,8.87404444 C42.7394667,7.23848889 41.3083556,5.84915556 38.9990222,5.84915556 C36.6488,5.84915556 34.1954667,7.52471111 34.1954667,11.1220444 C34.1954667,14.6580444 36.4852444,16.4358222 38.9785778,16.4358222 C41.9021333,16.4358222 43.0052444,14.4340444 43.1279111,13.1860444 L38.3448,13.1860444 L38.3448,11.0402667 L45.4372444,11.0402667 L45.4372444,18.3780444 L43.4550222,18.3780444 Z" id="Fill-5" fill="#000000"></path>
                    <path d="M55.3544,12.3077333 C55.3135111,11.1424 54.5366222,10.1006222 52.9019556,10.1006222 C51.4095111,10.1006222 50.5517333,11.2446222 50.4699556,12.3077333 L55.3544,12.3077333 Z M57.6228444,15.5370667 C57.0912889,17.2748444 55.5188444,18.6846222 53.1259556,18.6846222 C50.4281778,18.6846222 48.0370667,16.7228444 48.0370667,13.3504 C48.0370667,10.2019556 50.3677333,8.11751111 52.8815111,8.11751111 C55.9472889,8.11751111 57.7455111,10.1406222 57.7455111,13.2890667 C57.7455111,13.6766222 57.7055111,14.0037333 57.6850667,14.0446222 L50.4077333,14.0446222 C50.4699556,15.5575111 51.6548444,16.6410667 53.1259556,16.6410667 C54.5570667,16.6410667 55.2930667,15.8846222 55.6201778,14.9032889 L57.6228444,15.5370667 Z" id="Fill-7" fill="#000000"></path>
                    <path d="M60.6295111,18.3780444 L60.6295111,8.42426667 L62.8988444,8.42426667 L62.8988444,9.69182222 C63.4712889,8.6696 64.7184,8.13804444 65.8419556,8.13804444 C67.1504,8.13804444 68.2944,8.73093333 68.8268444,9.89626667 C69.6037333,8.58782222 70.7681778,8.13804444 72.0552889,8.13804444 C73.8552889,8.13804444 75.5726222,9.28293333 75.5726222,11.9184889 L75.5726222,18.3780444 L73.2819556,18.3780444 L73.2819556,12.3078222 C73.2819556,11.1424889 72.6890667,10.2642667 71.3601778,10.2642667 C70.1139556,10.2642667 69.2961778,11.2447111 69.2961778,12.4704889 L69.2961778,18.3780444 L66.9664,18.3780444 L66.9664,12.3078222 C66.9664,11.1629333 66.3930667,10.2642667 65.0446222,10.2642667 C63.7770667,10.2642667 62.9806222,11.2038222 62.9806222,12.4704889 L62.9806222,18.3780444 L60.6295111,18.3780444 Z" id="Fill-9" fill="#000000"></path>
                    <path d="M85.6312889,12.3077333 C85.5912889,11.1424 84.8135111,10.1006222 83.1788444,10.1006222 C81.6872889,10.1006222 80.8286222,11.2446222 80.7468444,12.3077333 L85.6312889,12.3077333 Z M87.9006222,15.5370667 C87.3690667,17.2748444 85.7957333,18.6846222 83.4037333,18.6846222 C80.7059556,18.6846222 78.3139556,16.7228444 78.3139556,13.3504 C78.3139556,10.2019556 80.6446222,8.11751111 83.1592889,8.11751111 C86.2250667,8.11751111 88.0232889,10.1406222 88.0232889,13.2890667 C88.0232889,13.6766222 87.9824,14.0037333 87.9619556,14.0446222 L80.6855111,14.0446222 C80.7468444,15.5575111 81.9317333,16.6410667 83.4037333,16.6410667 C84.8348444,16.6410667 85.5708444,15.8846222 85.8970667,14.9032889 L87.9006222,15.5370667 Z" id="Fill-11" fill="#000000"></path>
                    <mask id="mask-2" fill="white">
                        <use xlink:href="#path-1"></use>
                    </mask>
                    <g id="Clip-14"></g>
                    <path d="M90.9075556,18.3777778 L93.2586667,18.3777778 L93.2586667,8.424 L90.9075556,8.424 L90.9075556,18.3777778 Z M92.072,3.37511111 C92.9306667,3.37511111 93.6257778,4.07022222 93.6257778,4.92888889 C93.6257778,5.78755556 92.9306667,6.46222222 92.072,6.46222222 C91.2346667,6.46222222 90.5395556,5.78755556 90.5395556,4.92888889 C90.5395556,4.07022222 91.2346667,3.37511111 92.072,3.37511111 L92.072,3.37511111 Z" id="Fill-13" fill="#000000" mask="url(#mask-2)"></path>
                    <path d="M99.3092444,18.3780444 L96.9385778,18.3780444 L96.9385778,8.42426667 L99.2479111,8.42426667 L99.2479111,9.75226667 C99.9021333,8.60826667 101.087911,8.13804444 102.191022,8.13804444 C104.623911,8.13804444 105.789244,9.89626667 105.789244,12.0829333 L105.789244,18.3780444 L103.417689,18.3780444 L103.417689,12.4918222 C103.417689,11.2651556 102.865689,10.2847111 101.373244,10.2847111 C100.0248,10.2847111 99.3092444,11.3264889 99.3092444,12.6349333 L99.3092444,18.3780444 Z" id="Fill-15" fill="#000000" mask="url(#mask-2)"></path>
                    <path d="M113.5584,16.5386667 C115.112178,16.5386667 116.195733,15.2515556 116.195733,13.3502222 C116.195733,11.4488889 115.132622,10.264 113.578844,10.264 C112.025067,10.264 110.880178,11.4693333 110.880178,13.3706667 C110.880178,15.2711111 111.944178,16.5386667 113.5584,16.5386667 L113.5584,16.5386667 Z M118.483733,16.5591111 C118.483733,17.4586667 118.5664,18.2151111 118.585956,18.3777778 L116.317511,18.3777778 C116.277511,18.1528889 116.215289,17.4995556 116.215289,17.0906667 C115.745956,17.928 114.7024,18.624 113.292622,18.624 C110.4304,18.624 108.509511,16.3751111 108.509511,13.3706667 C108.509511,10.5093333 110.450844,8.15822222 113.250844,8.15822222 C114.988622,8.15822222 115.867733,8.95555556 116.1744,9.58933333 L116.1744,3.57955556 L118.483733,3.57955556 L118.483733,16.5591111 Z" id="Fill-16" fill="#000000" mask="url(#mask-2)"></path>
                    <path d="M128.747556,12.3077333 C128.706667,11.1424 127.929778,10.1006222 126.294222,10.1006222 C124.803556,10.1006222 123.944,11.2446222 123.862222,12.3077333 L128.747556,12.3077333 Z M131.016889,15.5370667 C130.485333,17.2748444 128.911111,18.6846222 126.52,18.6846222 C123.821333,18.6846222 121.430222,16.7228444 121.430222,13.3504 C121.430222,10.2019556 123.76,8.11751111 126.274667,8.11751111 C129.340444,8.11751111 131.138667,10.1406222 131.138667,13.2890667 C131.138667,13.6766222 131.098667,14.0037333 131.077333,14.0446222 L123.801778,14.0446222 C123.862222,15.5575111 125.048,16.6410667 126.52,16.6410667 C127.951111,16.6410667 128.687111,15.8846222 129.013333,14.9032889 L131.016889,15.5370667 Z" id="Fill-17" fill="#000000" mask="url(#mask-2)"></path>
                    <path d="M135.209422,15.1080889 C135.2912,16.0076444 135.965867,16.8040889 137.232533,16.8040889 C138.213867,16.8040889 138.724978,16.2734222 138.724978,15.6600889 C138.724978,15.1276444 138.356978,14.7196444 137.560533,14.5560889 L136.087644,14.2289778 C134.330311,13.8405333 133.4112,12.6956444 133.4112,11.3267556 C133.4112,9.58986667 135.004978,8.11786667 137.068978,8.11786667 C139.849422,8.11786667 140.748089,9.91608889 140.912533,10.8974222 L138.908978,11.4689778 C138.8272,10.8974222 138.397867,9.97742222 137.068978,9.97742222 C136.230756,9.97742222 135.637867,10.5089778 135.637867,11.1223111 C135.637867,11.6529778 136.0272,12.0423111 136.639644,12.1640889 L138.152533,12.4707556 C140.033422,12.8796444 141.013867,14.0245333 141.013867,15.4965333 C141.013867,17.0094222 139.7872,18.6840889 137.252978,18.6840889 C134.3712,18.6840889 133.2672,16.8040889 133.145422,15.6805333 L135.209422,15.1080889 Z" id="Fill-18" fill="#000000" mask="url(#mask-2)"></path>
                    <path d="M145.513244,13.3911111 C145.513244,15.3937778 146.800356,16.5182222 148.2928,16.5182222 C149.846578,16.5182222 150.562133,15.4346667 150.787022,14.6782222 L152.870578,15.4346667 C152.401244,16.9884444 150.9088,18.6844444 148.2928,18.6844444 C145.370133,18.6844444 143.141689,16.416 143.141689,13.3911111 C143.141689,10.3253333 145.370133,8.11733333 148.232356,8.11733333 C150.9088,8.11733333 152.381689,9.79377778 152.789689,11.3875556 L150.664356,12.1644444 C150.438578,11.2853333 149.7648,10.3048889 148.251911,10.3048889 C146.800356,10.3048889 145.513244,11.3875556 145.513244,13.3911111" id="Fill-19" fill="#000000" mask="url(#mask-2)"></path>
                    <path d="M161.212889,14.2496 L161.212889,13.7998222 L158.617333,14.1882667 C157.881333,14.3100444 157.288444,14.7189333 157.288444,15.5367111 C157.288444,16.2113778 157.799556,16.8247111 158.74,16.8247111 C160.068889,16.8247111 161.212889,16.1918222 161.212889,14.2496 M157.922222,12.6753778 L160.476889,12.2869333 C161.049333,12.2051556 161.212889,11.9189333 161.212889,11.5713778 C161.212889,10.7340444 160.639556,10.0593778 159.332889,10.0593778 C158.085778,10.0593778 157.390667,10.8567111 157.288444,11.8584889 L155.121333,11.3678222 C155.305333,9.65048889 156.859111,8.11804444 159.311556,8.11804444 C162.378222,8.11804444 163.542667,9.85493333 163.542667,11.8371556 L163.542667,16.7847111 C163.542667,17.6833778 163.644889,18.2762667 163.666222,18.3784889 L161.457333,18.3784889 C161.437778,18.3171556 161.356,17.9082667 161.356,17.1109333 C160.886667,17.8673778 159.904444,18.6842667 158.290222,18.6842667 C156.204889,18.6842667 154.917778,17.2540444 154.917778,15.6798222 C154.917778,13.9011556 156.225333,12.9207111 157.922222,12.6753778" id="Fill-20" fill="#000000" mask="url(#mask-2)"></path>
                    <path d="M169.391733,18.3780444 L167.020178,18.3780444 L167.020178,8.42426667 L169.3304,8.42426667 L169.3304,9.75226667 C169.983733,8.60826667 171.169511,8.13804444 172.273511,8.13804444 C174.7064,8.13804444 175.870844,9.89626667 175.870844,12.0829333 L175.870844,18.3780444 L173.499289,18.3780444 L173.499289,12.4918222 C173.499289,11.2651556 172.947289,10.2847111 171.455733,10.2847111 C170.107289,10.2847111 169.391733,11.3264889 169.391733,12.6349333 L169.391733,18.3780444 Z" id="Fill-21" fill="#000000" mask="url(#mask-2)"></path>
                    <path d="M11.7285333,23.4570667 C5.26186667,23.4570667 0.000533333334,18.1957333 0.000533333334,11.7290667 C0.000533333334,5.26151111 5.26186667,0.000177777778 11.7285333,0.000177777778 C15.2369778,0.000177777778 18.5329778,1.55217778 20.7712,4.25795556 C21.1623111,4.73173333 21.0965333,5.43217778 20.6236444,5.82328889 C20.1498667,6.21528889 19.4503111,6.14773333 19.0592,5.67484444 C17.2440889,3.48017778 14.5720889,2.2224 11.7285333,2.2224 C6.48764444,2.2224 2.22275556,6.48728889 2.22275556,11.7290667 C2.22275556,16.9699556 6.48764444,21.2348444 11.7285333,21.2348444 C16.7463111,21.2348444 20.9134222,17.3166222 21.2174222,12.3139556 C21.2547556,11.7015111 21.7543111,11.2419556 22.3943111,11.2721778 C23.0067556,11.3095111 23.4734222,11.8366222 23.4360889,12.4490667 C23.0609778,18.6224 17.9187556,23.4570667 11.7285333,23.4570667" id="Fill-22" fill="#000000" mask="url(#mask-2)"></path>
                </g>
            </g>
        </g>
    </g>
</svg>