<?xml version="1.0" encoding="UTF-8" standalone="no"?><!DOCTYPE svg PUBLIC "-//W3C//DTD SVG 1.1//EN" "http://www.w3.org/Graphics/SVG/1.1/DTD/svg11.dtd"><svg width="100%" height="100%" viewBox="0 0 180 55" version="1.1" xmlns="http://www.w3.org/2000/svg" xmlns:xlink="http://www.w3.org/1999/xlink" xml:space="preserve" xmlns:serif="http://www.serif.com/" style="fill-rule:evenodd;clip-rule:evenodd;stroke-linejoin:round;stroke-miterlimit:2;"><g id="gemeindescan-logo"><path id="Fill-1" d="M12.729,23.923c-2.098,0 -3.806,1.707 -3.806,3.806c0,2.098 1.708,3.805 3.806,3.805c2.098,0 3.806,-1.707 3.806,-3.805c0,-2.099 -1.708,-3.806 -3.806,-3.806m0,9.834c-3.324,0 -6.028,-2.704 -6.028,-6.028c0,-3.324 2.704,-6.028 6.028,-6.028c3.323,0 6.028,2.704 6.028,6.028c0,3.324 -2.705,6.028 -6.028,6.028"/><path id="Fill-3" d="M23.326,29.493l-5.231,0c-0.613,0 -1.111,-0.498 -1.111,-1.111c0,-0.614 0.498,-1.111 1.111,-1.111l5.231,0c0.613,0 1.111,0.497 1.111,1.111c0,0.613 -0.498,1.111 -1.111,1.111"/><path id="Fill-5" d="M44.455,34.378l-0.184,-1.839c-0.634,1.062 -2.126,2.146 -4.435,2.146c-3.782,0 -7.134,-2.78 -7.134,-7.563c0,-4.762 3.536,-7.542 7.297,-7.542c3.516,0 5.764,2.023 6.54,4.415l-2.309,0.879c-0.491,-1.635 -1.922,-3.025 -4.231,-3.025c-2.35,0 -4.804,1.676 -4.804,5.273c0,3.536 2.29,5.314 4.784,5.314c2.923,0 4.026,-2.002 4.149,-3.25l-4.783,0l0,-2.146l7.092,0l0,7.338l-1.982,0Z"/><path id="Fill-7" d="M56.354,28.308c-0.04,-1.165 -0.817,-2.207 -2.452,-2.207c-1.492,0 -2.35,1.144 -2.432,2.207l4.884,0Zm2.269,3.229c-0.532,1.738 -2.104,3.148 -4.497,3.148c-2.698,0 -5.089,-1.962 -5.089,-5.334c0,-3.149 2.331,-5.233 4.845,-5.233c3.065,0 4.864,2.023 4.864,5.171c0,0.388 -0.04,0.715 -0.061,0.756l-7.277,0c0.062,1.513 1.247,2.596 2.718,2.596c1.431,0 2.167,-0.756 2.494,-1.738l2.003,0.634Z"/><path id="Fill-9" d="M61.63,34.378l0,-9.954l2.269,0l0,1.268c0.572,-1.022 1.819,-1.554 2.943,-1.554c1.308,0 2.452,0.593 2.985,1.758c0.777,-1.308 1.941,-1.758 3.228,-1.758c1.8,0 3.518,1.145 3.518,3.781l0,6.459l-2.291,0l0,-6.07c0,-1.165 -0.593,-2.044 -1.922,-2.044c-1.246,0 -2.064,0.981 -2.064,2.207l0,5.907l-2.33,0l0,-6.07c0,-1.145 -0.573,-2.044 -1.921,-2.044c-1.268,0 -2.064,0.94 -2.064,2.207l0,5.907l-2.351,0Z"/><path id="Fill-11" d="M86.631,28.308c-0.04,-1.165 -0.817,-2.207 -2.452,-2.207c-1.492,0 -2.35,1.144 -2.432,2.207l4.884,0Zm2.27,3.229c-0.532,1.738 -2.105,3.148 -4.497,3.148c-2.698,0 -5.09,-1.962 -5.09,-5.334c0,-3.149 2.331,-5.233 4.845,-5.233c3.066,0 4.864,2.023 4.864,5.171c0,0.388 -0.041,0.715 -0.061,0.756l-7.276,0c0.061,1.513 1.246,2.596 2.718,2.596c1.431,0 2.167,-0.756 2.493,-1.738l2.004,0.634Z"/><path id="Fill-13" d="M91.908,34.378l2.351,0l0,-9.954l-2.351,0l0,9.954Zm1.164,-15.003c0.859,0 1.554,0.695 1.554,1.554c0,0.859 -0.695,1.533 -1.554,1.533c-0.837,0 -1.532,-0.674 -1.532,-1.533c0,-0.859 0.695,-1.554 1.532,-1.554Z"/><path id="Fill-15" d="M100.309,34.378l-2.37,0l0,-9.954l2.309,0l0,1.328c0.654,-1.144 1.84,-1.614 2.943,-1.614c2.433,0 3.598,1.758 3.598,3.945l0,6.295l-2.371,0l0,-5.886c0,-1.227 -0.552,-2.207 -2.045,-2.207c-1.348,0 -2.064,1.042 -2.064,2.35l0,5.743Z"/><path id="Fill-16" d="M114.558,32.539c1.554,0 2.638,-1.287 2.638,-3.189c0,-1.901 -1.063,-3.086 -2.617,-3.086c-1.554,0 -2.699,1.206 -2.699,3.107c0,1.9 1.064,3.168 2.678,3.168Zm4.926,0.02c0,0.9 0.082,1.656 0.102,1.819l-2.268,0c-0.04,-0.225 -0.103,-0.878 -0.103,-1.287c-0.469,0.837 -1.513,1.533 -2.922,1.533c-2.863,0 -4.783,-2.249 -4.783,-5.253c0,-2.861 1.941,-5.213 4.741,-5.213c1.738,0 2.617,0.798 2.923,1.432l0,-6.01l2.31,0l0,12.979Z"/><path id="Fill-17" d="M129.748,28.308c-0.041,-1.165 -0.818,-2.207 -2.454,-2.207c-1.49,0 -2.35,1.144 -2.432,2.207l4.886,0Zm2.269,3.229c-0.532,1.738 -2.106,3.148 -4.497,3.148c-2.699,0 -5.09,-1.962 -5.09,-5.334c0,-3.149 2.33,-5.233 4.845,-5.233c3.065,0 4.864,2.023 4.864,5.171c0,0.388 -0.04,0.715 -0.062,0.756l-7.275,0c0.06,1.513 1.246,2.596 2.718,2.596c1.431,0 2.167,-0.756 2.493,-1.738l2.004,0.634Z"/><path id="Fill-18" d="M136.209,31.108c0.082,0.9 0.757,1.696 2.024,1.696c0.981,0 1.492,-0.53 1.492,-1.144c0,-0.532 -0.368,-0.94 -1.164,-1.104l-1.473,-0.327c-1.758,-0.388 -2.677,-1.533 -2.677,-2.902c0,-1.737 1.594,-3.209 3.658,-3.209c2.78,0 3.679,1.798 3.844,2.78l-2.004,0.571c-0.082,-0.571 -0.511,-1.491 -1.84,-1.491c-0.838,0 -1.431,0.531 -1.431,1.144c0,0.531 0.389,0.92 1.002,1.042l1.513,0.307c1.88,0.409 2.861,1.554 2.861,3.026c0,1.513 -1.227,3.187 -3.761,3.187c-2.882,0 -3.986,-1.88 -4.108,-3.003l2.064,-0.573Z"/><path id="Fill-19" d="M146.513,29.391c0,2.003 1.287,3.127 2.78,3.127c1.554,0 2.269,-1.083 2.494,-1.84l2.084,0.757c-0.47,1.554 -1.962,3.25 -4.578,3.25c-2.923,0 -5.151,-2.269 -5.151,-5.294c0,-3.065 2.228,-5.273 5.09,-5.273c2.677,0 4.15,1.676 4.558,3.27l-2.126,0.777c-0.225,-0.879 -0.899,-1.86 -2.412,-1.86c-1.452,0 -2.739,1.083 -2.739,3.086"/><path id="Fill-20" d="M162.213,30.25l0,-0.45l-2.596,0.388c-0.736,0.122 -1.329,0.531 -1.329,1.349c0,0.675 0.512,1.288 1.452,1.288c1.329,0 2.473,-0.633 2.473,-2.575m-3.291,-1.574l2.555,-0.389c0.572,-0.082 0.736,-0.368 0.736,-0.715c0,-0.838 -0.573,-1.512 -1.88,-1.512c-1.247,0 -1.942,0.797 -2.045,1.799l-2.167,-0.491c0.184,-1.717 1.738,-3.25 4.191,-3.25c3.066,0 4.231,1.737 4.231,3.719l0,4.948c0,0.899 0.102,1.491 0.123,1.594l-2.209,0c-0.019,-0.062 -0.101,-0.471 -0.101,-1.268c-0.469,0.757 -1.452,1.573 -3.066,1.573c-2.085,0 -3.372,-1.43 -3.372,-3.004c0,-1.779 1.307,-2.759 3.004,-3.004"/><path id="Fill-21" d="M170.392,34.378l-2.372,0l0,-9.954l2.31,0l0,1.328c0.654,-1.144 1.84,-1.614 2.944,-1.614c2.432,0 3.597,1.758 3.597,3.945l0,6.295l-2.372,0l0,-5.886c0,-1.227 -0.552,-2.207 -2.043,-2.207c-1.349,0 -2.064,1.042 -2.064,2.35l0,5.743Z"/><path id="Fill-22" d="M12.729,39.457c-6.467,0 -11.728,-5.261 -11.728,-11.728c0,-6.467 5.261,-11.729 11.728,-11.729c3.508,0 6.804,1.552 9.042,4.258c0.391,0.474 0.326,1.174 -0.147,1.565c-0.474,0.392 -1.174,0.325 -1.565,-0.148c-1.815,-2.195 -4.487,-3.452 -7.33,-3.452c-5.241,0 -9.506,4.264 -9.506,9.506c0,5.241 4.265,9.506 9.506,9.506c5.017,0 9.184,-3.918 9.488,-8.921c0.038,-0.612 0.537,-1.072 1.177,-1.042c0.613,0.038 1.079,0.565 1.042,1.177c-0.375,6.174 -5.517,11.008 -11.707,11.008"/></g></svg>
