<?xml version="1.0" encoding="UTF-8"?>
<svg width="717px" height="459px" viewBox="0 0 717 459" version="1.1" xmlns="http://www.w3.org/2000/svg" xmlns:xlink="http://www.w3.org/1999/xlink">
    <!-- Generator: Sketch 61.2 (89653) - https://sketch.com -->
    <title>gmdscn-ch-map</title>
    <desc>Created with Sketch.</desc>
    <g id="Assets" stroke="none" stroke-width="1" fill="none" fill-rule="evenodd">
        <g id="gmdscn-ch-map" fill="#4B286F">
            <polygon points="26 284 76 241 85 196 113 183 173 108 145 105 164 63 194 63 194 81 221 81 250 63 258 45 309 50 345 50 376 45 407 50 395 28 424 0 459 10 481 33 517 28 555 45 585 69 585 105 564 135 576 174 618 183 627 208 667 227 694 196 717 208 706 251 717 269 713 295 680 279 653 290 650 311 667 330 667 369 642 369 627 338 576 356 555 338 555 301 525 311 527 349 505 385 488 406 494 444 476 459 450 422 454 398 421 390 395 356 395 318 371 318 359 349 336 356 345 380 328 402 321 422 305 425 298 438 273 429 235 427 201 444 180 438 143 405 145 390 128 385 138 356 128 338 128 318 85 311 60 326 46 349 47 369 10 390 0 372 26 356 26 330 10 311"></polygon>
        </g>
    </g>
</svg>