<?xml version="1.0" encoding="UTF-8" standalone="no"?><!DOCTYPE svg PUBLIC "-//W3C//DTD SVG 1.1//EN" "http://www.w3.org/Graphics/SVG/1.1/DTD/svg11.dtd"><svg width="100%" height="100%" viewBox="0 0 131 42" version="1.1" xmlns="http://www.w3.org/2000/svg" xmlns:xlink="http://www.w3.org/1999/xlink" xml:space="preserve" xmlns:serif="http://www.serif.com/" style="fill-rule:evenodd;clip-rule:evenodd;stroke-linejoin:round;stroke-miterlimit:2;"><g><path d="M22.99,17.08c-0.249,-1.534 -1.651,-2.634 -3.2,-2.51c-0.079,-0.007 -0.159,-0.011 -0.239,-0.011c-1.331,0 -2.453,1.034 -2.561,2.361c0.005,1.078 0.837,1.988 1.91,2.09l2.34,0.48c2.88,0.57 4.42,2.39 4.42,4.69c0,2.53 -2,4.95 -5.77,4.95c-4.14,0 -6.05,-2.66 -6.3,-5l2.57,-0.74c0.121,1.829 1.66,3.268 3.492,3.268c0.08,0 0.159,-0.003 0.238,-0.008c2,0 3,-1 3,-2.25c0,-1.06 -0.78,-1.91 -2.18,-2.21l-2.3,-0.48c-2.49,-0.5 -4.14,-2.13 -4.14,-4.57c0,-2.74 2.5,-5 5.53,-5c3.84,0 5.34,2.35 5.71,4.16l-2.52,0.78Z" style="fill:#543178;fill-rule:nonzero;"/><path d="M28.72,28.78l0,-11.2l2.55,0l0,1.42c0.721,-1.12 1.978,-1.784 3.31,-1.75c1.418,-0.074 2.749,0.718 3.36,2c0.729,-1.302 2.14,-2.08 3.63,-2c2,0 4,1.28 4,4.25l0,7.27l-2.61,0l0,-6.83c0.015,-0.099 0.023,-0.199 0.023,-0.299c0,-1.097 -0.903,-2 -2,-2c-0.065,0 -0.129,0.003 -0.193,0.009c-1.276,0.002 -2.326,1.053 -2.326,2.33c0,0.053 0.002,0.107 0.006,0.16l0,6.64l-2.62,0l0,-6.84c0.01,-0.081 0.015,-0.163 0.015,-0.244c0,-1.125 -0.926,-2.05 -2.05,-2.05c-0.045,0 -0.09,0.001 -0.135,0.004c-0.009,0 -0.019,0 -0.028,0c-1.262,0 -2.3,1.038 -2.3,2.3c0,0.063 0.003,0.127 0.008,0.19l0,6.65l-2.64,-0.01Z" style="fill:#543178;fill-rule:nonzero;"/><path d="M52.41,22.35l2.87,-0.44c0.65,-0.1 0.83,-0.42 0.83,-0.81c0,-0.94 -0.65,-1.7 -2.12,-1.7c-1.177,-0.074 -2.21,0.824 -2.3,2l-2.43,-0.55c0.2,-1.94 1.95,-3.66 4.71,-3.66c3.45,0 4.76,1.95 4.76,4.18l0,5.56c0,0.603 0.047,1.204 0.14,1.8l-2.48,0c-0.088,-0.471 -0.129,-0.95 -0.12,-1.43c-0.748,1.161 -2.06,1.84 -3.44,1.78c-0.081,0.006 -0.162,0.008 -0.243,0.008c-1.869,0 -3.426,-1.491 -3.507,-3.358c0,-2 1.42,-3.08 3.33,-3.38Zm3.7,1.76l0,-0.46l-2.92,0.44c-0.83,0.14 -1.49,0.6 -1.49,1.52c0.017,0.8 0.68,1.448 1.48,1.448c0.05,0 0.1,-0.003 0.15,-0.008c1.5,-0.04 2.75,-0.75 2.75,-2.94l0.03,0Z" style="fill:#543178;fill-rule:nonzero;"/><path d="M69.43,20.2c-0.291,-0.047 -0.585,-0.071 -0.88,-0.07c-2.07,0 -3,1.2 -3,3.29l0,5.33l-2.67,0l0,-11.19l2.6,0l0,1.8c0.784,-1.422 2.406,-2.18 4,-1.87l-0.05,2.71Z" style="fill:#543178;fill-rule:nonzero;"/><path d="M76.44,17.55l2.32,0l0,2.36l-2.32,0l0,5.19c0,1 0.44,1.41 1.43,1.41c0.309,-0.008 0.617,-0.042 0.92,-0.1l0,2.24c-0.521,0.191 -1.075,0.276 -1.63,0.25c-0.097,0.009 -0.194,0.014 -0.291,0.014c-1.69,0 -3.08,-1.391 -3.08,-3.08c0,-0.088 0.003,-0.176 0.011,-0.264l0,-5.65l-2.07,0l0,-2.37l0.57,0c0.05,0.005 0.1,0.007 0.15,0.007c0.867,0 1.58,-0.713 1.58,-1.58c0,-0.059 -0.003,-0.118 -0.01,-0.177l0,-1.68l2.42,0l0,3.43Z" style="fill:#543178;fill-rule:nonzero;"/><path d="M86.57,29.06c-0.036,0.001 -0.073,0.001 -0.109,0.001c-2.271,0 -4.14,-1.868 -4.14,-4.14c0,-0.09 0.003,-0.181 0.009,-0.271l0,-7.11l2.67,0l0,6.58c0,1.38 0.64,2.55 2.26,2.55c0.039,0.002 0.078,0.003 0.117,0.003c1.229,0 2.24,-1.011 2.24,-2.24c0,-0.091 -0.006,-0.182 -0.017,-0.273l0,-6.62l2.67,0l0,9.11c0.002,0.685 0.039,1.369 0.11,2.05l-2.55,0c-0.057,-0.411 -0.088,-0.825 -0.09,-1.24c-0.698,1.055 -1.906,1.665 -3.17,1.6Z" style="fill:#543178;fill-rule:nonzero;"/><path d="M97.97,25.05c0.094,1.08 1.008,1.918 2.092,1.918c0.063,0 0.126,-0.002 0.188,-0.008c1.1,0 1.68,-0.6 1.68,-1.29c0,-0.69 -0.42,-1.06 -1.31,-1.24l-1.66,-0.37c-2,-0.43 -3,-1.72 -3,-3.26c0.143,-2.119 2.001,-3.746 4.12,-3.61c3.13,0 4.14,2 4.32,3.12l-2.25,0.65c-0.125,-1.02 -1.047,-1.768 -2.07,-1.68c-0.795,-0.087 -1.522,0.495 -1.61,1.29c0.028,0.616 0.515,1.121 1.13,1.17l1.7,0.34c2.12,0.46 3.22,1.75 3.22,3.41c0,1.66 -1.37,3.58 -4.23,3.59c-3.24,0 -4.48,-2.12 -4.62,-3.38l2.3,-0.65Z" style="fill:#543178;fill-rule:nonzero;"/><path d="M117.91,25.52c-0.663,2.202 -2.764,3.675 -5.06,3.55c-0.023,0 -0.046,0 -0.07,0c-3.11,0 -5.67,-2.559 -5.67,-5.67c0,-0.11 0.004,-0.22 0.01,-0.33c-0.004,-0.091 -0.007,-0.182 -0.007,-0.272c0,-3.022 2.437,-5.53 5.457,-5.618c3.45,0 5.48,2.27 5.48,5.81c0.007,0.285 -0.016,0.57 -0.07,0.85l-8.19,0c0.043,1.638 1.422,2.953 3.06,2.92c1.29,0.092 2.475,-0.751 2.81,-2l2.25,0.76Zm-2.55,-3.63c-0.015,-1.372 -1.148,-2.492 -2.52,-2.492c-0.083,0 -0.167,0.004 -0.25,0.012c-1.415,-0.025 -2.62,1.069 -2.73,2.48l5.5,0Z" style="fill:#543178;fill-rule:nonzero;"/><path d="M123.19,41l-115.45,0c-3.699,-0.005 -6.74,-3.051 -6.74,-6.75l0,-26.51c0,-3.697 3.043,-6.74 6.74,-6.74l115.45,0c3.697,0 6.74,3.043 6.74,6.74l0,26.51c0,3.699 -3.041,6.745 -6.74,6.75Zm-115.45,-37.5c-2.326,0 -4.24,1.914 -4.24,4.24l0,26.51c0,2.328 1.912,4.245 4.24,4.25l115.45,0c2.328,-0.005 4.24,-1.922 4.24,-4.25l0,-26.51c0,-2.326 -1.914,-4.24 -4.24,-4.24l-115.45,0Z" style="fill:#543178;fill-rule:nonzero;"/></g></svg>