<?xml version="1.0" encoding="UTF-8" standalone="no"?><!DOCTYPE svg PUBLIC "-//W3C//DTD SVG 1.1//EN" "http://www.w3.org/Graphics/SVG/1.1/DTD/svg11.dtd"><svg width="100%" height="100%" viewBox="0 0 333 100" version="1.1" xmlns="http://www.w3.org/2000/svg" xmlns:xlink="http://www.w3.org/1999/xlink" xml:space="preserve" xmlns:serif="http://www.serif.com/" style="fill-rule:evenodd;clip-rule:evenodd;stroke-linejoin:round;stroke-miterlimit:2;"><g><path d="M160.344,60.969l-9.08,0l0,-24.17l-13.36,0c-1.646,0 -3,1.354 -3,3c0,1.645 1.354,3 3,3l7.36,0l0,18.17l-9.09,0c-1.646,0 -3,1.354 -3,3c0,1.645 1.354,3 3,3l24.17,0c1.645,0 3,-1.355 3,-3c0,-1.646 -1.355,-3 -3,-3Z" style="fill:#543076;fill-rule:nonzero;"/><path d="M242.794,60.969l-9.08,0l0,-24.17l-13.37,0c-1.646,0 -3,1.354 -3,3c0,1.645 1.354,3 3,3l7.36,0l0,18.17l-9.09,0c-1.646,0 -3,1.354 -3,3c0,1.645 1.354,3 3,3l24.18,0c1.645,0 3,-1.355 3,-3c0,-1.646 -1.355,-3 -3,-3Z" style="fill:#543076;fill-rule:nonzero;"/><path d="M329.364,60.969l-9.08,0l0,-24.17l-13.36,0c-1.646,0 -3,1.354 -3,3c0,1.645 1.354,3 3,3l7.36,0l0,18.17l-9.09,0c-1.646,0 -3,1.354 -3,3c0,1.645 1.354,3 3,3l24.17,0c1.645,0 3,-1.355 3,-3c0,-1.646 -1.355,-3 -3,-3Z" style="fill:#543076;fill-rule:nonzero;"/><path d="M204.644,36.799l-11.59,0c-1.646,0 -3,1.354 -3,3c0,1.645 1.354,3 3,3l2.14,0l-8,16.22l-8,-16.22l2.16,0c1.645,0 3,-1.355 3,-3c0,-1.646 -1.355,-3 -3,-3l-11.56,0c-1.646,0 -3,1.354 -3,3c0,1.645 1.354,3 3,3l2.74,0l12,24.33c0.505,1.021 1.55,1.67 2.69,1.67c1.125,-0.002 2.159,-0.637 2.67,-1.64l12,-24.32l2.76,0c1.645,0 3,-1.355 3,-3c0,-1.646 -1.355,-3 -3,-3l-0.01,-0.04Z" style="fill:#543076;fill-rule:nonzero;"/><circle cx="148.264" cy="25.979" r="4.43" style="fill:#543076;"/><circle cx="230.704" cy="25.979" r="4.43" style="fill:#543076;"/><circle cx="317.284" cy="25.979" r="4.43" style="fill:#543076;"/><path d="M289.204,61.259l-2.07,0c-0.907,-0.006 -1.65,-0.753 -1.65,-1.66l0,-36.62l-9.69,0c-1.646,0 -3,1.354 -3,3c0,1.645 1.354,3 3,3l3.72,0l0,10.34c-2.89,-2.353 -6.504,-3.639 -10.23,-3.639c-8.887,0 -16.2,7.313 -16.2,16.2c0,8.887 7.313,16.2 16.2,16.2c4.219,0 8.276,-1.648 11.3,-4.591c1.372,2.327 3.878,3.763 6.58,3.77l2.07,0c1.645,0 3,-1.355 3,-3c0,-1.646 -1.355,-3 -3,-3l-0.03,0Zm-19.92,0.82c-5.596,0 -10.2,-4.605 -10.2,-10.2c0,-5.596 4.604,-10.2 10.2,-10.2c5.595,0 10.2,4.604 10.2,10.2c0,0.003 0,0.006 0,0.01c-0.011,5.589 -4.611,10.184 -10.2,10.19Z" style="fill:#543076;fill-rule:nonzero;"/><path d="M107.794,68.079c-0.005,0 -0.009,0 -0.013,0c-9.447,0 -17.22,-7.774 -17.22,-17.22c0,-9.447 7.773,-17.22 17.22,-17.22c4.568,0 8.954,1.818 12.183,5.05l0.88,0.88l0,6.88c0,1.645 -1.355,3 -3,3c-1.646,0 -3,-1.355 -3,-3l0,-4.29c-1.988,-1.628 -4.481,-2.516 -7.05,-2.51c-0.003,0 -0.005,0 -0.008,0c-6.155,0 -11.22,5.065 -11.22,11.22c0,6.155 5.065,11.22 11.22,11.22c2.977,0 5.834,-1.185 7.938,-3.29c0.567,-0.609 1.362,-0.955 2.194,-0.955c1.646,0 3,1.354 3,3c0,0.832 -0.346,1.628 -0.954,2.195c-3.219,3.237 -7.605,5.053 -12.17,5.04Z" style="fill:#543076;fill-rule:nonzero;"/><circle cx="34.144" cy="25.979" r="4.43" style="fill:#543076;"/><circle cx="16.164" cy="53.939" r="4.43" style="fill:#543076;"/><circle cx="52.124" cy="53.939" r="4.43" style="fill:#543076;"/><path d="M34.144,79.459c-1.324,-0.016 -2.489,-0.907 -2.85,-2.18l-13.19,-48.7c-7.037,5.114 -11.21,13.304 -11.21,22.003c0,7.228 2.88,14.165 8,19.267c1.257,1.264 2.637,2.399 4.12,3.39c0.821,0.548 1.316,1.472 1.316,2.46c0,1.622 -1.334,2.956 -2.956,2.956c-0.584,0 -1.155,-0.173 -1.64,-0.496c-9.197,-6.138 -14.734,-16.491 -14.734,-27.548c0,-8.797 3.505,-17.241 9.734,-23.452c1.532,-1.529 3.206,-2.908 5,-4.12c0.9,-0.6 1.84,-1.16 2.79,-1.67c0.437,-0.242 0.928,-0.369 1.428,-0.369c1.32,0 2.487,0.887 2.842,2.159l11.38,42l11.35,-42c0.38,-1.264 1.552,-2.136 2.872,-2.136c0.487,0 0.967,0.119 1.398,0.346c1,0.51 1.88,1.07 2.78,1.67c1.795,1.209 3.469,2.589 5,4.12c6.222,6.214 9.722,14.655 9.722,23.449c0,11.055 -5.532,21.407 -14.722,27.551c-0.503,0.362 -1.106,0.556 -1.725,0.556c-1.618,0 -2.95,-1.331 -2.95,-2.95c0,-1.019 0.528,-1.969 1.395,-2.506c1.483,-0.993 2.867,-2.128 4.13,-3.39c5.097,-5.109 7.963,-12.038 7.963,-19.255c0,-8.696 -4.161,-16.887 -11.183,-22.015l-13.21,48.68c-0.362,1.273 -1.526,2.164 -2.85,2.18Z" style="fill:#543076;fill-rule:nonzero;"/></g></svg>