<?xml version="1.0" encoding="UTF-8" standalone="no"?>
<!DOCTYPE svg PUBLIC "-//W3C//DTD SVG 1.1//EN" "http://www.w3.org/Graphics/SVG/1.1/DTD/svg11.dtd">
<svg width="100%" height="100%" viewBox="0 0 105 55" version="1.1" xmlns="http://www.w3.org/2000/svg" xmlns:xlink="http://www.w3.org/1999/xlink" xml:space="preserve" xmlns:serif="http://www.serif.com/" style="fill-rule:evenodd;clip-rule:evenodd;stroke-linejoin:round;stroke-miterlimit:2;">
    <g id="dufour-logo">
        <g transform="matrix(1,0,0,1,0.142555,0.545842)">
            <g transform="matrix(0.903953,0,0,0.903953,-37.9187,1.79639)">
                <circle cx="50.22" cy="25.74" r="1.77"/>
            </g>
            <g transform="matrix(0.903953,0,0,0.903953,-37.9187,1.79639)">
                <circle cx="55.75" cy="28.19" r="1.77"/>
            </g>
            <g transform="matrix(0.903953,0,0,0.903953,-37.9187,1.79639)">
                <circle cx="61.52" cy="30.44" r="1.77"/>
            </g>
            <g transform="matrix(0.903953,0,0,0.903953,-37.9187,1.79639)">
                <path d="M55.87,41.54C50.697,41.515 45.993,38.458 43.87,33.74C43.811,33.592 43.78,33.434 43.78,33.275C43.78,32.589 44.345,32.025 45.03,32.025C45.513,32.025 45.954,32.304 46.16,32.74C47.883,36.576 51.715,39.055 55.92,39.055C60.125,39.055 63.957,36.576 65.68,32.74C65.964,32.114 66.712,31.83 67.34,32.11C67.965,32.39 68.249,33.135 67.97,33.76C65.826,38.502 61.075,41.558 55.87,41.54Z" style="fill-rule:nonzero;"/>
            </g>
            <g transform="matrix(0.903953,0,0,0.903953,-37.9187,1.79639)">
                <path d="M45.11,24.41C44.922,24.411 44.737,24.366 44.57,24.28C44.142,24.073 43.87,23.638 43.87,23.164C43.87,22.971 43.914,22.782 44,22.61C46.205,18.065 50.833,15.166 55.885,15.166C60.937,15.166 65.565,18.065 67.77,22.61C67.852,22.78 67.895,22.966 67.895,23.155C67.895,23.841 67.331,24.405 66.645,24.405C66.167,24.405 65.729,24.13 65.52,23.7C63.736,20.019 59.981,17.679 55.89,17.7C51.794,17.718 48.047,20.069 46.25,23.75C46.028,24.17 45.584,24.427 45.11,24.41Z" style="fill-rule:nonzero;"/>
            </g>
        </g>
        <g transform="matrix(1,0,0,1,-57.7676,25.9011)">
            <g transform="matrix(21.56,0,0,22,89.0256,9.10724)">
                <path d="M0.304,-0.55C0.362,-0.55 0.406,-0.521 0.435,-0.463L0.439,-0.463C0.443,-0.51 0.449,-0.551 0.457,-0.585L0.494,-0.76L0.608,-0.76L0.447,-0L0.357,-0L0.366,-0.086L0.363,-0.086C0.334,-0.051 0.306,-0.027 0.28,-0.012C0.253,0.002 0.225,0.01 0.195,0.01C0.148,0.01 0.112,-0.007 0.085,-0.04C0.059,-0.073 0.046,-0.12 0.046,-0.18C0.046,-0.247 0.058,-0.309 0.081,-0.367C0.104,-0.425 0.135,-0.47 0.174,-0.502C0.213,-0.534 0.257,-0.55 0.304,-0.55ZM0.239,-0.083C0.265,-0.083 0.292,-0.096 0.318,-0.123C0.344,-0.15 0.365,-0.185 0.381,-0.228C0.397,-0.271 0.405,-0.314 0.405,-0.358C0.405,-0.388 0.398,-0.411 0.384,-0.429C0.369,-0.447 0.348,-0.456 0.319,-0.456C0.291,-0.456 0.265,-0.444 0.241,-0.418C0.217,-0.393 0.198,-0.359 0.184,-0.315C0.169,-0.272 0.162,-0.227 0.162,-0.182C0.162,-0.116 0.188,-0.083 0.239,-0.083Z" style="fill-rule:nonzero;"/>
            </g>
            <g transform="matrix(21.56,0,0,22,102.069,9.10724)">
                <path d="M0.247,-0.54L0.184,-0.242C0.174,-0.196 0.169,-0.165 0.169,-0.148C0.169,-0.105 0.19,-0.083 0.231,-0.083C0.254,-0.083 0.278,-0.092 0.301,-0.111C0.324,-0.129 0.344,-0.156 0.362,-0.19C0.38,-0.225 0.394,-0.265 0.404,-0.311L0.452,-0.54L0.566,-0.54L0.452,-0L0.362,-0L0.372,-0.1L0.368,-0.1C0.341,-0.062 0.314,-0.035 0.285,-0.017C0.256,0.001 0.224,0.01 0.191,0.01C0.147,0.01 0.114,-0.003 0.09,-0.027C0.066,-0.052 0.054,-0.088 0.054,-0.134C0.054,-0.154 0.056,-0.175 0.06,-0.195C0.064,-0.215 0.068,-0.235 0.072,-0.255L0.132,-0.54L0.247,-0.54Z" style="fill-rule:nonzero;"/>
            </g>
            <g transform="matrix(21.56,0,0,22,115.217,9.10724)">
                <path d="M-0.037,0.24C-0.066,0.24 -0.091,0.236 -0.11,0.229L-0.11,0.136C-0.089,0.143 -0.07,0.146 -0.054,0.146C-0.011,0.146 0.018,0.113 0.032,0.046L0.138,-0.453L0.051,-0.453L0.061,-0.505L0.156,-0.542L0.166,-0.587C0.18,-0.651 0.202,-0.697 0.232,-0.724C0.261,-0.752 0.303,-0.765 0.357,-0.765C0.394,-0.765 0.429,-0.758 0.46,-0.744L0.43,-0.658C0.406,-0.667 0.384,-0.672 0.364,-0.672C0.341,-0.672 0.323,-0.665 0.31,-0.651C0.296,-0.637 0.286,-0.614 0.279,-0.582L0.27,-0.54L0.382,-0.54L0.364,-0.453L0.252,-0.453L0.143,0.061C0.13,0.123 0.109,0.168 0.079,0.197C0.049,0.226 0.011,0.24 -0.037,0.24Z" style="fill-rule:nonzero;"/>
            </g>
            <g transform="matrix(21.56,0,0,22,123.038,9.10724)">
                <path d="M0.411,-0.343C0.411,-0.378 0.403,-0.405 0.387,-0.425C0.371,-0.444 0.348,-0.454 0.319,-0.454C0.289,-0.454 0.261,-0.442 0.238,-0.419C0.214,-0.396 0.195,-0.364 0.182,-0.324C0.169,-0.285 0.162,-0.242 0.162,-0.197C0.162,-0.161 0.17,-0.133 0.186,-0.114C0.202,-0.095 0.226,-0.085 0.258,-0.085C0.287,-0.085 0.313,-0.096 0.337,-0.118C0.36,-0.14 0.379,-0.171 0.392,-0.211C0.405,-0.251 0.411,-0.295 0.411,-0.343ZM0.527,-0.338C0.527,-0.272 0.515,-0.212 0.491,-0.158C0.467,-0.105 0.435,-0.063 0.393,-0.034C0.352,-0.006 0.304,0.009 0.25,0.009C0.188,0.009 0.138,-0.01 0.101,-0.047C0.064,-0.084 0.046,-0.135 0.046,-0.199C0.046,-0.264 0.058,-0.323 0.081,-0.377C0.104,-0.431 0.137,-0.474 0.179,-0.504C0.221,-0.534 0.269,-0.549 0.324,-0.549C0.388,-0.549 0.437,-0.53 0.473,-0.492C0.509,-0.454 0.527,-0.403 0.527,-0.338Z" style="fill-rule:nonzero;"/>
            </g>
            <g transform="matrix(21.56,0,0,22,135.828,9.10724)">
                <path d="M0.247,-0.54L0.184,-0.242C0.174,-0.196 0.169,-0.165 0.169,-0.148C0.169,-0.105 0.19,-0.083 0.231,-0.083C0.254,-0.083 0.278,-0.092 0.301,-0.111C0.324,-0.129 0.344,-0.156 0.362,-0.19C0.38,-0.225 0.394,-0.265 0.404,-0.311L0.452,-0.54L0.566,-0.54L0.452,-0L0.362,-0L0.372,-0.1L0.368,-0.1C0.341,-0.062 0.314,-0.035 0.285,-0.017C0.256,0.001 0.224,0.01 0.191,0.01C0.147,0.01 0.114,-0.003 0.09,-0.027C0.066,-0.052 0.054,-0.088 0.054,-0.134C0.054,-0.154 0.056,-0.175 0.06,-0.195C0.064,-0.215 0.068,-0.235 0.072,-0.255L0.132,-0.54L0.247,-0.54Z" style="fill-rule:nonzero;"/>
            </g>
            <g transform="matrix(21.56,0,0,22,148.977,9.10724)">
                <path d="M0.389,-0.55C0.409,-0.55 0.427,-0.548 0.442,-0.544L0.417,-0.437C0.399,-0.442 0.383,-0.444 0.367,-0.444C0.326,-0.444 0.29,-0.425 0.257,-0.389C0.225,-0.352 0.203,-0.304 0.19,-0.244L0.138,-0L0.023,-0L0.138,-0.54L0.228,-0.54L0.218,-0.44L0.222,-0.44C0.249,-0.479 0.276,-0.507 0.303,-0.524C0.33,-0.541 0.359,-0.55 0.389,-0.55Z" style="fill-rule:nonzero;"/>
            </g>
        </g>
    </g>
</svg>
