<?xml version="1.0" encoding="UTF-8" standalone="no"?>
<!DOCTYPE svg PUBLIC "-//W3C//DTD SVG 1.1//EN" "http://www.w3.org/Graphics/SVG/1.1/DTD/svg11.dtd">
<svg width="100%" height="100%" viewBox="0 0 2500 335" version="1.1" xmlns="http://www.w3.org/2000/svg" xmlns:xlink="http://www.w3.org/1999/xlink" xml:space="preserve" xmlns:serif="http://www.serif.com/" style="fill-rule:evenodd;clip-rule:evenodd;stroke-linejoin:round;stroke-miterlimit:2;">
    <g transform="matrix(1,0,0,1,27.5355,290.335)">
        <g transform="matrix(0.781664,0,0,0.781664,2.71064,-53.4502)">
            <path d="M217.111,-29.288L217.111,0L154.238,0L154.238,-24.513C137.472,-6.261 117.469,2.865 94.23,2.865C78.101,2.865 63.855,-0.929 51.492,-8.516C39.13,-16.103 29.526,-26.423 22.682,-39.475C15.838,-52.527 12.415,-66.959 12.415,-82.77C12.415,-98.899 16.05,-113.755 23.319,-127.338C30.588,-140.921 40.642,-151.718 53.482,-159.729C66.322,-167.741 80.223,-171.747 95.185,-171.747C106.009,-171.747 116.275,-169.572 125.985,-165.221C135.694,-160.87 145.112,-154.026 154.238,-144.688L154.238,-210.903L121.926,-210.903L121.926,-239.873L186.868,-239.873L186.868,-29.288L217.111,-29.288ZM100.438,-26.423C110.625,-26.423 119.804,-29.129 127.975,-34.54C136.145,-39.952 142.565,-47.168 147.234,-56.188C151.903,-65.208 154.238,-74.864 154.238,-85.157C154.238,-95.556 151.903,-105.054 147.234,-113.649C142.565,-122.244 136.092,-129.036 127.815,-134.023C119.538,-139.011 110.2,-141.504 99.801,-141.504C89.72,-141.504 80.727,-138.825 72.821,-133.466C64.916,-128.107 58.682,-120.998 54.119,-112.137C49.556,-103.276 47.274,-93.806 47.274,-83.725C47.274,-72.901 49.609,-63.138 54.278,-54.437C58.947,-45.736 65.314,-38.891 73.378,-33.904C81.443,-28.916 90.463,-26.423 100.438,-26.423Z" style="fill-rule:nonzero;"/>
            <path d="M342.698,-206.287L313.41,-201.831C312.455,-212.654 308.317,-218.066 300.995,-218.066C295.795,-218.066 292.32,-216.209 290.569,-212.495C288.818,-208.781 287.943,-202.149 287.943,-192.599L287.943,-167.29L316.594,-167.29L316.594,-137.843L287.943,-137.843L287.943,-29.288L319.459,-29.288L319.459,0L230.482,0L230.482,-29.288L254.994,-29.288L254.994,-137.843L230.482,-137.843L230.482,-167.29L254.994,-167.29L254.994,-193.235C254.994,-208.516 258.735,-220.931 266.216,-230.482C273.697,-240.032 284.759,-244.807 299.403,-244.807C311.5,-244.807 321.236,-241.597 328.611,-235.177C335.986,-228.757 340.682,-219.127 342.698,-206.287Z" style="fill-rule:nonzero;"/>
            <path d="M475.607,-155.511L485.794,-167.29L506.964,-167.29L488.022,-144.369C495.663,-136.623 501.605,-127.471 505.85,-116.912C510.094,-106.354 512.217,-95.185 512.217,-83.406C512.217,-67.171 508.343,-52.315 500.597,-38.838C492.851,-25.361 482.292,-14.697 468.922,-6.844C455.551,1.008 440.748,4.934 424.513,4.934C415.175,4.934 406.049,3.634 397.135,1.035C388.221,-1.565 380.263,-5.253 373.259,-10.028L364.505,0L343.335,0L360.844,-20.852C353.097,-28.916 347.102,-38.334 342.857,-49.105C338.613,-59.875 336.49,-71.309 336.49,-83.406C336.49,-101.021 340.39,-116.514 348.19,-129.885C355.989,-143.255 366.574,-153.575 379.944,-160.844C393.315,-168.113 408.171,-171.747 424.513,-171.747C443.189,-171.747 460.22,-166.335 475.607,-155.511ZM383.446,-46.956L454.437,-130.044C445.736,-136.623 435.655,-139.913 424.194,-139.913C415.068,-139.913 406.314,-137.392 397.931,-132.352C389.548,-127.311 382.969,-120.467 378.194,-111.819C373.418,-103.17 371.031,-93.699 371.031,-83.406C371.031,-69.293 375.169,-57.143 383.446,-46.956ZM424.513,-27.059C434.275,-27.059 443.242,-29.606 451.413,-34.7C459.584,-39.793 465.951,-46.638 470.514,-55.233C475.076,-63.828 477.358,-73.219 477.358,-83.406C477.358,-96.034 473.538,-107.76 465.898,-118.583L395.066,-36.132C403.767,-30.084 413.583,-27.059 424.513,-27.059Z" style="fill-rule:nonzero;"/>
            <path d="M612.018,-25.786C626.768,-25.786 642.738,-32.949 659.929,-47.274L659.929,-137.843L630.323,-137.843L630.323,-167.29L692.877,-167.29L692.877,-29.288L721.528,-29.288L721.528,0L659.929,0L659.929,-19.26C640.616,-4.51 622.258,2.865 604.855,2.865C589.15,2.865 577.557,-1.804 570.076,-11.142C562.595,-20.48 558.854,-35.973 558.854,-57.62L558.854,-137.843L535.456,-137.843L535.456,-167.29L591.803,-167.29L591.803,-50.776C591.803,-42.181 593.368,-35.867 596.498,-31.834C599.629,-27.802 604.802,-25.786 612.018,-25.786Z" style="fill-rule:nonzero;"/>
            <path d="M802.07,-67.171L802.07,-29.288L838.52,-29.288L838.52,0L735.854,0L735.854,-29.288L769.439,-29.288L769.439,-137.843L735.854,-137.843L735.854,-167.29L795.543,-167.29L795.543,-129.407C802.229,-144.369 810.532,-154.795 820.454,-160.685C830.376,-166.574 844.569,-169.519 863.033,-169.519L870.514,-169.519L870.514,-136.252L863.351,-136.252C845.524,-136.252 832.259,-133.917 823.558,-129.248C814.856,-124.579 809.1,-117.522 806.288,-108.078C803.476,-98.634 802.07,-84.998 802.07,-67.171Z" style="fill-rule:nonzero;"/>
        </g>
        <g transform="matrix(0.732139,0,0,0.732139,248.187,-33.8035)">
            <g transform="matrix(4.16667,0,0,4.16667,1058.14,-226.529)">
                <path d="M0,-13.745L0,-8.47L5.563,-8.47L5.563,-13.745L8.586,-13.745L8.586,0L5.563,0L5.563,-5.93L0,-5.93L0,0L-3.023,0L-3.023,-13.745L0,-13.745Z" style="fill:rgb(13,10,5);fill-rule:nonzero;"/>
            </g>
            <g transform="matrix(4.16667,0,0,4.16667,1115.94,-262.495)">
                <path d="M0,3.502C0.135,4.047 0.349,4.538 0.645,4.975C0.941,5.413 1.324,5.761 1.8,6.024C2.275,6.288 2.852,6.42 3.532,6.42C4.212,6.42 4.791,6.288 5.265,6.024C5.738,5.761 6.125,5.413 6.421,4.975C6.714,4.538 6.93,4.047 7.065,3.502C7.199,2.957 7.266,2.395 7.266,1.819C7.266,1.215 7.199,0.632 7.065,0.066C6.93,-0.5 6.714,-1.001 6.421,-1.446C6.125,-1.887 5.738,-2.24 5.265,-2.504C4.791,-2.769 4.212,-2.897 3.532,-2.897C2.852,-2.897 2.275,-2.769 1.8,-2.504C1.324,-2.24 0.941,-1.887 0.645,-1.446C0.349,-1.001 0.135,-0.5 0,0.066C-0.136,0.632 -0.204,1.215 -0.204,1.819C-0.204,2.395 -0.136,2.957 0,3.502M-2.762,-1.041C-2.456,-1.92 -2.012,-2.687 -1.434,-3.342C-0.858,-3.996 -0.148,-4.508 0.692,-4.882C1.533,-5.253 2.48,-5.44 3.532,-5.44C4.597,-5.44 5.548,-5.253 6.381,-4.882C7.217,-4.508 7.921,-3.996 8.498,-3.342C9.077,-2.687 9.519,-1.92 9.827,-1.041C10.136,-0.162 10.289,0.792 10.289,1.819C10.289,2.818 10.136,3.753 9.827,4.62C9.519,5.484 9.077,6.239 8.498,6.881C7.921,7.522 7.217,8.025 6.381,8.391C5.548,8.757 4.597,8.942 3.532,8.942C2.48,8.942 1.533,8.757 0.692,8.391C-0.148,8.025 -0.858,7.522 -1.434,6.881C-2.012,6.239 -2.456,5.484 -2.762,4.62C-3.07,3.753 -3.225,2.818 -3.225,1.819C-3.225,0.792 -3.07,-0.162 -2.762,-1.041" style="fill:rgb(13,10,5);fill-rule:nonzero;"/>
            </g>
            <g transform="matrix(4.16667,0,0,4.16667,1177.01,-269.752)">
                <path d="M0,6.985C0.167,7.306 0.388,7.568 0.665,7.765C0.941,7.965 1.264,8.11 1.638,8.209C2.009,8.305 2.396,8.352 2.792,8.352C3.062,8.352 3.35,8.33 3.659,8.284C3.965,8.24 4.253,8.154 4.525,8.026C4.793,7.896 5.019,7.72 5.2,7.496C5.377,7.271 5.468,6.985 5.468,6.64C5.468,6.269 5.35,5.965 5.111,5.734C4.874,5.503 4.562,5.311 4.178,5.156C3.793,5.004 3.355,4.867 2.87,4.754C2.38,4.637 1.886,4.51 1.388,4.368C0.872,4.239 0.374,4.081 -0.116,3.895C-0.602,3.709 -1.038,3.468 -1.425,3.174C-1.808,2.88 -2.12,2.51 -2.357,2.066C-2.596,1.624 -2.714,1.087 -2.714,0.46C-2.714,-0.246 -2.563,-0.859 -2.26,-1.379C-1.959,-1.898 -1.565,-2.332 -1.076,-2.68C-0.589,-3.025 -0.038,-3.281 0.579,-3.449C1.194,-3.615 1.811,-3.698 2.426,-3.698C3.145,-3.698 3.835,-3.618 4.495,-3.458C5.157,-3.299 5.743,-3.036 6.257,-2.68C6.77,-2.317 7.179,-1.861 7.48,-1.301C7.781,-0.743 7.931,-0.065 7.931,0.73L5.006,0.73C4.979,0.319 4.893,-0.021 4.745,-0.291C4.597,-0.56 4.403,-0.773 4.159,-0.925C3.916,-1.081 3.637,-1.19 3.321,-1.254C3.007,-1.317 2.663,-1.351 2.292,-1.351C2.047,-1.351 1.804,-1.325 1.56,-1.273C1.317,-1.222 1.094,-1.131 0.896,-1.004C0.697,-0.875 0.535,-0.714 0.404,-0.522C0.275,-0.329 0.213,-0.086 0.213,0.21C0.213,0.48 0.263,0.698 0.366,0.864C0.469,1.03 0.672,1.186 0.973,1.326C1.275,1.467 1.69,1.608 2.225,1.749C2.756,1.891 3.454,2.07 4.314,2.289C4.57,2.34 4.926,2.432 5.38,2.568C5.837,2.702 6.289,2.917 6.739,3.212C7.189,3.509 7.575,3.902 7.903,4.396C8.229,4.89 8.395,5.522 8.395,6.292C8.395,6.921 8.272,7.507 8.029,8.044C7.786,8.583 7.422,9.05 6.94,9.441C6.459,9.832 5.862,10.137 5.149,10.353C4.436,10.571 3.615,10.683 2.676,10.683C1.918,10.683 1.184,10.59 0.471,10.403C-0.241,10.217 -0.868,9.925 -1.415,9.525C-1.959,9.129 -2.392,8.622 -2.714,8.005C-3.035,7.39 -3.188,6.659 -3.175,5.81L-0.248,5.81C-0.248,6.272 -0.166,6.665 0,6.985" style="fill:rgb(13,10,5);fill-rule:nonzero;"/>
            </g>
            <g transform="matrix(4.16667,0,0,4.16667,1230.39,-262.495)">
                <path d="M0,3.502C0.136,4.047 0.349,4.538 0.645,4.975C0.941,5.413 1.325,5.761 1.802,6.024C2.275,6.288 2.852,6.42 3.532,6.42C4.212,6.42 4.791,6.288 5.266,6.024C5.74,5.761 6.125,5.413 6.421,4.975C6.714,4.538 6.93,4.047 7.066,3.502C7.199,2.957 7.267,2.395 7.267,1.819C7.267,1.215 7.199,0.632 7.066,0.066C6.93,-0.5 6.714,-1.001 6.421,-1.446C6.125,-1.887 5.74,-2.24 5.266,-2.504C4.791,-2.769 4.212,-2.897 3.532,-2.897C2.852,-2.897 2.275,-2.769 1.802,-2.504C1.325,-2.24 0.941,-1.887 0.645,-1.446C0.349,-1.001 0.136,-0.5 0,0.066C-0.135,0.632 -0.202,1.215 -0.202,1.819C-0.202,2.395 -0.135,2.957 0,3.502M-2.761,-1.041C-2.456,-1.92 -2.012,-2.687 -1.434,-3.342C-0.858,-3.996 -0.148,-4.508 0.693,-4.882C1.533,-5.253 2.482,-5.44 3.532,-5.44C4.597,-5.44 5.549,-5.253 6.382,-4.882C7.217,-4.508 7.921,-3.996 8.499,-3.342C9.077,-2.687 9.519,-1.92 9.827,-1.041C10.137,-0.162 10.289,0.792 10.289,1.819C10.289,2.818 10.137,3.753 9.827,4.62C9.519,5.484 9.077,6.239 8.499,6.881C7.921,7.522 7.217,8.025 6.382,8.391C5.549,8.757 4.597,8.942 3.532,8.942C2.482,8.942 1.533,8.757 0.693,8.391C-0.148,8.025 -0.858,7.522 -1.434,6.881C-2.012,6.239 -2.456,5.484 -2.761,4.62C-3.07,3.753 -3.225,2.818 -3.225,1.819C-3.225,0.792 -3.07,-0.162 -2.761,-1.041" style="fill:rgb(13,10,5);fill-rule:nonzero;"/>
            </g>
            <g transform="matrix(4.16667,0,0,4.16667,1275.67,-226.529)">
                <path d="M0,-13.745L3.388,-13.745L6.604,-8.316L9.798,-13.745L13.168,-13.745L8.067,-5.276L8.067,0L5.044,0L5.044,-5.351L0,-13.745Z" style="fill:rgb(13,10,5);fill-rule:nonzero;"/>
            </g>
            <g transform="matrix(4.16667,0,0,4.16667,1358.69,-261.662)">
                <path d="M0,3.12L-1.733,-1.924L-1.77,-1.924L-3.562,3.12L0,3.12ZM-0.174,-5.313L4.966,8.433L1.829,8.433L0.787,5.372L-4.352,5.372L-5.431,8.433L-8.471,8.433L-3.273,-5.313L-0.174,-5.313Z" style="fill:rgb(13,10,5);fill-rule:nonzero;"/>
            </g>
            <g transform="matrix(4.16667,0,0,4.16667,1053.43,-168.161)">
                <path d="M0,6.987C0.167,7.309 0.389,7.57 0.665,7.768C0.941,7.966 1.264,8.115 1.638,8.21C2.009,8.308 2.396,8.355 2.792,8.355C3.063,8.355 3.351,8.334 3.659,8.288C3.965,8.242 4.253,8.156 4.525,8.028C4.793,7.899 5.019,7.723 5.2,7.497C5.377,7.274 5.468,6.987 5.468,6.643C5.468,6.271 5.35,5.968 5.113,5.737C4.874,5.506 4.562,5.313 4.179,5.159C3.793,5.005 3.357,4.871 2.87,4.757C2.38,4.64 1.886,4.51 1.388,4.37C0.874,4.242 0.374,4.083 -0.116,3.899C-0.602,3.712 -1.038,3.471 -1.425,3.176C-1.808,2.883 -2.12,2.513 -2.357,2.069C-2.596,1.628 -2.714,1.09 -2.714,0.462C-2.714,-0.243 -2.563,-0.857 -2.26,-1.376C-1.959,-1.895 -1.565,-2.328 -1.076,-2.676C-0.589,-3.022 -0.038,-3.277 0.58,-3.446C1.194,-3.612 1.812,-3.697 2.426,-3.697C3.145,-3.697 3.835,-3.616 4.495,-3.455C5.157,-3.294 5.744,-3.033 6.259,-2.676C6.77,-2.317 7.179,-1.857 7.48,-1.299C7.781,-0.741 7.931,-0.063 7.931,0.731L5.006,0.731C4.979,0.322 4.895,-0.019 4.745,-0.288C4.599,-0.559 4.403,-0.77 4.159,-0.924C3.916,-1.077 3.637,-1.185 3.322,-1.251C3.007,-1.315 2.663,-1.346 2.294,-1.346C2.047,-1.346 1.804,-1.321 1.56,-1.269C1.317,-1.219 1.094,-1.128 0.896,-1.001C0.698,-0.872 0.535,-0.711 0.404,-0.519C0.276,-0.326 0.214,-0.083 0.214,0.212C0.214,0.483 0.263,0.701 0.366,0.866C0.469,1.034 0.672,1.188 0.973,1.329C1.275,1.471 1.691,1.611 2.225,1.751C2.757,1.895 3.454,2.072 4.314,2.29C4.57,2.343 4.926,2.436 5.38,2.57C5.837,2.705 6.289,2.92 6.739,3.215C7.189,3.511 7.575,3.906 7.903,4.399C8.229,4.893 8.395,5.526 8.395,6.295C8.395,6.925 8.273,7.507 8.029,8.047C7.787,8.586 7.422,9.051 6.94,9.443C6.459,9.835 5.862,10.138 5.149,10.357C4.438,10.575 3.615,10.684 2.676,10.684C1.92,10.684 1.184,10.59 0.471,10.405C-0.24,10.22 -0.867,9.928 -1.415,9.528C-1.959,9.133 -2.392,8.624 -2.714,8.01C-3.035,7.392 -3.188,6.66 -3.175,5.814L-0.248,5.814C-0.248,6.276 -0.165,6.668 0,6.987" style="fill:rgb(13,10,5);fill-rule:nonzero;"/>
            </g>
            <g transform="matrix(4.16667,0,0,4.16667,1132.59,-140.291)">
                <path d="M0,-6.39C-0.178,-6.678 -0.404,-6.931 -0.672,-7.149C-0.944,-7.367 -1.246,-7.539 -1.587,-7.661C-1.926,-7.781 -2.282,-7.844 -2.656,-7.844C-3.336,-7.844 -3.913,-7.711 -4.387,-7.448C-4.863,-7.184 -5.248,-6.833 -5.542,-6.39C-5.84,-5.947 -6.052,-5.444 -6.187,-4.878C-6.324,-4.314 -6.391,-3.73 -6.391,-3.126C-6.391,-2.549 -6.324,-1.987 -6.187,-1.442C-6.052,-0.896 -5.84,-0.406 -5.542,0.03C-5.248,0.466 -4.863,0.816 -4.387,1.08C-3.913,1.343 -3.336,1.474 -2.656,1.474C-1.73,1.474 -1.009,1.193 -0.489,0.627C0.03,0.061 0.349,-0.682 0.463,-1.606L3.389,-1.606C3.314,-0.745 3.113,0.03 2.792,0.724C2.471,1.416 2.049,2.007 1.523,2.495C0.996,2.983 0.379,3.355 -0.326,3.61C-1.031,3.865 -1.808,3.995 -2.656,3.995C-3.707,3.995 -4.655,3.813 -5.496,3.447C-6.335,3.081 -7.045,2.578 -7.623,1.935C-8.199,1.294 -8.643,0.54 -8.949,-0.326C-9.257,-1.192 -9.413,-2.126 -9.413,-3.126C-9.413,-4.152 -9.257,-5.106 -8.949,-5.985C-8.643,-6.864 -8.199,-7.631 -7.623,-8.286C-7.045,-8.94 -6.335,-9.453 -5.496,-9.826C-4.655,-10.198 -3.707,-10.385 -2.656,-10.385C-1.899,-10.385 -1.184,-10.275 -0.509,-10.057C0.165,-9.839 0.767,-9.522 1.302,-9.104C1.834,-8.687 2.273,-8.171 2.619,-7.554C2.965,-6.939 3.183,-6.233 3.273,-5.437L0.349,-5.437C0.296,-5.783 0.18,-6.101 0,-6.39" style="fill:rgb(13,10,5);fill-rule:nonzero;"/>
            </g>
            <g transform="matrix(4.16667,0,0,4.16667,1167.89,-124.919)">
                <path d="M0,-13.746L0,-8.471L5.563,-8.471L5.563,-13.746L8.586,-13.746L8.586,0L5.563,0L5.563,-5.931L0,-5.931L0,0L-3.023,0L-3.023,-13.746L0,-13.746Z" style="fill:rgb(13,10,5);fill-rule:nonzero;"/>
            </g>
            <g transform="matrix(4.16667,0,0,4.16667,1244.01,-160.054)">
                <path d="M0,3.118L-1.733,-1.927L-1.77,-1.927L-3.562,3.118L0,3.118ZM-0.173,-5.314L4.967,8.432L1.829,8.432L0.788,5.37L-4.352,5.37L-5.431,8.432L-8.471,8.432L-3.272,-5.314L-0.173,-5.314Z" style="fill:rgb(13,10,5);fill-rule:nonzero;"/>
            </g>
            <g transform="matrix(4.16667,0,0,4.16667,1312.51,-124.919)">
                <path d="M0,-13.746L0,-11.205L-7.257,-11.205L-7.257,-8.261L-0.597,-8.261L-0.597,-5.911L-7.257,-5.911L-7.257,-2.541L0.156,-2.541L0.156,0L-10.279,0L-10.279,-13.746L0,-13.746Z" style="fill:rgb(13,10,5);fill-rule:nonzero;"/>
            </g>
            <g transform="matrix(4.16667,0,0,4.16667,1361.92,-124.919)">
                <path d="M0,-13.746L0,-11.205L-6.643,-11.205L-6.643,-8.03L-0.885,-8.03L-0.885,-5.679L-6.643,-5.679L-6.643,0L-9.665,0L-9.665,-13.746L0,-13.746Z" style="fill:rgb(13,10,5);fill-rule:nonzero;"/>
            </g>
            <g transform="matrix(4.16667,0,0,4.16667,1412.05,-124.919)">
                <path d="M0,-13.746L0,-11.205L-7.26,-11.205L-7.26,-8.261L-0.597,-8.261L-0.597,-5.911L-7.26,-5.911L-7.26,-2.541L0.153,-2.541L0.153,0L-10.281,0L-10.281,-13.746L0,-13.746Z" style="fill:rgb(13,10,5);fill-rule:nonzero;"/>
            </g>
            <g transform="matrix(4.16667,0,0,4.16667,1447.58,-150.835)">
                <path d="M0,-1.308C0.693,-1.308 1.211,-1.462 1.561,-1.77C1.905,-2.079 2.079,-2.581 2.079,-3.273C2.079,-3.939 1.905,-4.423 1.561,-4.726C1.211,-5.028 0.693,-5.179 0,-5.179L-3.31,-5.179L-3.31,-1.308L0,-1.308ZM1.08,-7.527C1.693,-7.527 2.251,-7.428 2.745,-7.228C3.237,-7.029 3.66,-6.756 4.013,-6.41C4.368,-6.064 4.636,-5.664 4.821,-5.207C5.009,-4.751 5.102,-4.261 5.102,-3.734C5.102,-2.925 4.931,-2.226 4.591,-1.638C4.252,-1.045 3.695,-0.595 2.924,-0.289L2.924,-0.251C3.298,-0.148 3.607,0.011 3.85,0.222C4.094,0.434 4.291,0.683 4.447,0.971C4.6,1.261 4.713,1.579 4.783,1.924C4.854,2.272 4.902,2.618 4.928,2.966C4.941,3.184 4.954,3.44 4.967,3.736C4.979,4.031 5.001,4.332 5.034,4.639C5.067,4.947 5.118,5.24 5.188,5.515C5.257,5.793 5.366,6.026 5.506,6.219L2.484,6.219C2.316,5.783 2.216,5.262 2.174,4.659C2.138,4.057 2.079,3.478 2.001,2.926C1.899,2.208 1.68,1.681 1.349,1.348C1.014,1.014 0.47,0.847 -0.288,0.847L-3.31,0.847L-3.31,6.219L-6.333,6.219L-6.333,-7.527L1.08,-7.527" style="fill:rgb(13,10,5);fill-rule:nonzero;"/>
            </g>
            <g transform="matrix(4.16667,0,0,4.16667,1075.49,-58.4636)">
                <path d="M0,3.12L-1.733,-1.924L-1.77,-1.924L-3.562,3.12L0,3.12ZM-0.173,-5.313L4.966,8.433L1.829,8.433L0.788,5.372L-4.352,5.372L-5.431,8.433L-8.471,8.433L-3.273,-5.313L-0.173,-5.313Z" style="fill:rgb(13,10,5);fill-rule:nonzero;"/>
            </g>
            <g transform="matrix(4.16667,0,0,4.16667,1127.55,-49.2361)">
                <path d="M0,-1.309C0.692,-1.309 1.211,-1.462 1.56,-1.77C1.907,-2.08 2.079,-2.578 2.079,-3.273C2.079,-3.939 1.907,-4.424 1.56,-4.727C1.211,-5.026 0.692,-5.177 0,-5.177L-3.311,-5.177L-3.311,-1.309L0,-1.309ZM1.079,-7.527C1.693,-7.527 2.249,-7.426 2.744,-7.228C3.236,-7.028 3.659,-6.757 4.013,-6.41C4.366,-6.063 4.635,-5.661 4.821,-5.208C5.009,-4.751 5.102,-4.259 5.102,-3.735C5.102,-2.925 4.931,-2.227 4.59,-1.636C4.251,-1.046 3.694,-0.596 2.924,-0.289L2.924,-0.25C3.298,-0.146 3.607,0.01 3.85,0.223C4.092,0.434 4.291,0.685 4.447,0.973C4.6,1.262 4.713,1.579 4.783,1.926C4.853,2.273 4.901,2.617 4.928,2.965C4.941,3.183 4.953,3.439 4.966,3.735C4.979,4.03 5.001,4.332 5.034,4.641C5.066,4.949 5.117,5.239 5.187,5.516C5.257,5.792 5.364,6.025 5.506,6.218L2.483,6.218C2.316,5.782 2.214,5.263 2.174,4.659C2.136,4.056 2.079,3.479 2.001,2.928C1.899,2.207 1.68,1.683 1.347,1.348C1.014,1.014 0.469,0.848 -0.288,0.848L-3.311,0.848L-3.311,6.218L-6.333,6.218L-6.333,-7.527L1.079,-7.527" style="fill:rgb(13,10,5);fill-rule:nonzero;"/>
            </g>
            <g transform="matrix(4.16667,0,0,4.16667,1195.8,-38.6852)">
                <path d="M0,-6.392C-0.18,-6.68 -0.404,-6.934 -0.675,-7.153C-0.944,-7.371 -1.249,-7.541 -1.587,-7.661C-1.929,-7.785 -2.284,-7.844 -2.656,-7.844C-3.336,-7.844 -3.916,-7.712 -4.39,-7.451C-4.863,-7.188 -5.249,-6.835 -5.544,-6.392C-5.84,-5.948 -6.055,-5.444 -6.19,-4.881C-6.324,-4.315 -6.391,-3.732 -6.391,-3.129C-6.391,-2.551 -6.324,-1.989 -6.19,-1.443C-6.055,-0.898 -5.84,-0.408 -5.544,0.029C-5.249,0.464 -4.863,0.814 -4.39,1.077C-3.916,1.34 -3.336,1.472 -2.656,1.472C-1.734,1.472 -1.011,1.189 -0.492,0.625C0.027,0.06 0.347,-0.684 0.461,-1.605L3.389,-1.605C3.311,-0.748 3.113,0.029 2.792,0.721C2.47,1.414 2.047,2.005 1.52,2.493C0.993,2.981 0.379,3.352 -0.328,3.609C-1.033,3.866 -1.809,3.994 -2.656,3.994C-3.71,3.994 -4.655,3.811 -5.496,3.444C-6.335,3.079 -7.045,2.577 -7.623,1.935C-8.202,1.292 -8.643,0.539 -8.952,-0.328C-9.261,-1.194 -9.413,-2.128 -9.413,-3.129C-9.413,-4.156 -9.261,-5.108 -8.952,-5.987C-8.643,-6.867 -8.202,-7.634 -7.623,-8.288C-7.045,-8.942 -6.335,-9.455 -5.496,-9.826C-4.655,-10.199 -3.71,-10.386 -2.656,-10.386C-1.899,-10.386 -1.184,-10.277 -0.509,-10.06C0.164,-9.839 0.767,-9.523 1.299,-9.107C1.831,-8.688 2.273,-8.173 2.619,-7.555C2.965,-6.94 3.183,-6.235 3.273,-5.439L0.347,-5.439C0.296,-5.786 0.18,-6.103 0,-6.392" style="fill:rgb(13,10,5);fill-rule:nonzero;"/>
            </g>
            <g transform="matrix(4.16667,0,0,4.16667,1231.09,-23.3265)">
                <path d="M0,-13.746L0,-8.47L5.563,-8.47L5.563,-13.746L8.586,-13.746L8.586,0L5.563,0L5.563,-5.93L0,-5.93L0,0L-3.023,0L-3.023,-13.746L0,-13.746Z" style="fill:rgb(13,10,5);fill-rule:nonzero;"/>
            </g>
            <g transform="matrix(4.16667,0,0,4.16667,876.442,-2872.7)">
                <rect x="96.358" y="670.103" width="3.023" height="13.745" style="fill:rgb(13,10,5);"/>
            </g>
            <g transform="matrix(4.16667,0,0,4.16667,1297.11,-33.9227)">
                <path d="M0,-8.66L0,-11.203L11.26,-11.203L11.26,-8.66L7.141,-8.66L7.141,2.543L4.118,2.543L4.118,-8.66L0,-8.66Z" style="fill:rgb(13,10,5);fill-rule:nonzero;"/>
            </g>
            <g transform="matrix(4.16667,0,0,4.16667,1393.44,-23.3265)">
                <path d="M0,-13.746L0,-11.203L-7.256,-11.203L-7.256,-8.257L-0.596,-8.257L-0.596,-5.91L-7.256,-5.91L-7.256,-2.541L0.157,-2.541L0.157,0L-10.277,0L-10.277,-13.746L0,-13.746Z" style="fill:rgb(13,10,5);fill-rule:nonzero;"/>
            </g>
            <g transform="matrix(4.16667,0,0,4.16667,1439.32,-38.6852)">
                <path d="M0,-6.392C-0.182,-6.68 -0.404,-6.934 -0.675,-7.153C-0.942,-7.371 -1.25,-7.541 -1.589,-7.661C-1.929,-7.785 -2.286,-7.844 -2.657,-7.844C-3.336,-7.844 -3.916,-7.712 -4.391,-7.451C-4.865,-7.188 -5.25,-6.835 -5.544,-6.392C-5.84,-5.948 -6.055,-5.444 -6.19,-4.881C-6.324,-4.315 -6.391,-3.732 -6.391,-3.129C-6.391,-2.551 -6.324,-1.989 -6.19,-1.443C-6.055,-0.898 -5.84,-0.408 -5.544,0.029C-5.25,0.464 -4.865,0.814 -4.391,1.077C-3.916,1.34 -3.336,1.472 -2.657,1.472C-1.734,1.472 -1.011,1.189 -0.492,0.625C0.029,0.06 0.345,-0.684 0.462,-1.605L3.388,-1.605C3.311,-0.748 3.113,0.029 2.792,0.721C2.469,1.414 2.046,2.005 1.52,2.493C0.993,2.981 0.378,3.352 -0.33,3.609C-1.034,3.866 -1.808,3.994 -2.657,3.994C-3.71,3.994 -4.656,3.811 -5.496,3.444C-6.337,3.079 -7.047,2.577 -7.623,1.935C-8.202,1.292 -8.644,0.539 -8.952,-0.328C-9.261,-1.194 -9.414,-2.128 -9.414,-3.129C-9.414,-4.156 -9.261,-5.108 -8.952,-5.987C-8.644,-6.867 -8.202,-7.634 -7.623,-8.288C-7.047,-8.942 -6.337,-9.455 -5.496,-9.826C-4.656,-10.199 -3.71,-10.386 -2.657,-10.386C-1.899,-10.386 -1.184,-10.277 -0.509,-10.06C0.162,-9.839 0.767,-9.523 1.298,-9.107C1.83,-8.688 2.271,-8.173 2.619,-7.555C2.963,-6.94 3.181,-6.235 3.273,-5.439L0.345,-5.439C0.296,-5.786 0.18,-6.103 0,-6.392" style="fill:rgb(13,10,5);fill-rule:nonzero;"/>
            </g>
            <g transform="matrix(4.16667,0,0,4.16667,1457.52,-33.9227)">
                <path d="M0,-8.66L0,-11.203L11.264,-11.203L11.264,-8.66L7.141,-8.66L7.141,2.543L4.12,2.543L4.12,-8.66L0,-8.66Z" style="fill:rgb(13,10,5);fill-rule:nonzero;"/>
            </g>
            <g transform="matrix(4.16667,0,0,4.16667,1520.64,-66.5644)">
                <path d="M0,6.99C0.169,7.311 0.391,7.57 0.666,7.768C0.941,7.967 1.266,8.115 1.639,8.211C2.011,8.307 2.396,8.355 2.793,8.355C3.064,8.355 3.351,8.333 3.662,8.288C3.967,8.244 4.255,8.157 4.526,8.028C4.795,7.901 5.019,7.725 5.2,7.499C5.379,7.274 5.468,6.99 5.468,6.642C5.468,6.27 5.351,5.969 5.114,5.737C4.875,5.506 4.564,5.316 4.181,5.159C3.793,5.007 3.357,4.87 2.87,4.756C2.38,4.639 1.886,4.512 1.389,4.372C0.874,4.242 0.375,4.085 -0.114,3.9C-0.601,3.714 -1.037,3.474 -1.424,3.178C-1.807,2.882 -2.12,2.512 -2.357,2.071C-2.596,1.628 -2.713,1.093 -2.713,0.464C-2.713,-0.244 -2.562,-0.855 -2.258,-1.374C-1.959,-1.896 -1.564,-2.327 -1.075,-2.675C-0.588,-3.021 -0.036,-3.278 0.581,-3.446C1.194,-3.612 1.813,-3.695 2.426,-3.695C3.146,-3.695 3.835,-3.614 4.495,-3.453C5.158,-3.292 5.745,-3.034 6.26,-2.675C6.771,-2.315 7.179,-1.856 7.481,-1.297C7.781,-0.741 7.933,-0.063 7.933,0.733L5.008,0.733C4.979,0.322 4.896,-0.018 4.745,-0.289C4.599,-0.558 4.404,-0.769 4.16,-0.922C3.917,-1.076 3.638,-1.186 3.321,-1.251C3.009,-1.314 2.665,-1.347 2.294,-1.347C2.048,-1.347 1.805,-1.321 1.561,-1.27C1.319,-1.218 1.095,-1.129 0.897,-1.002C0.698,-0.872 0.535,-0.712 0.405,-0.52C0.276,-0.327 0.214,-0.084 0.214,0.213C0.214,0.482 0.263,0.701 0.367,0.868C0.47,1.034 0.674,1.189 0.973,1.328C1.276,1.471 1.691,1.611 2.226,1.753C2.758,1.894 3.455,2.073 4.314,2.291C4.571,2.342 4.927,2.435 5.381,2.57C5.838,2.707 6.29,2.921 6.742,3.214C7.189,3.511 7.575,3.905 7.905,4.398C8.23,4.893 8.397,5.526 8.397,6.294C8.397,6.925 8.273,7.509 8.031,8.047C7.786,8.587 7.423,9.051 6.942,9.443C6.46,9.834 5.863,10.14 5.15,10.357C4.438,10.576 3.615,10.685 2.678,10.685C1.92,10.685 1.184,10.592 0.472,10.406C-0.24,10.222 -0.867,9.927 -1.415,9.53C-1.959,9.132 -2.392,8.625 -2.713,8.009C-3.035,7.394 -3.187,6.663 -3.174,5.813L-0.247,5.813C-0.247,6.277 -0.165,6.667 0,6.99" style="fill:rgb(13,10,5);fill-rule:nonzero;"/>
            </g>
            <g transform="matrix(4.16667,0,0,4.16667,1059.07,30.6819)">
                <path d="M0,1.664L-0.927,-1.032L-0.946,-1.032L-1.904,1.664L0,1.664ZM-0.092,-2.843L2.656,4.507L0.977,4.507L0.422,2.869L-2.326,2.869L-2.904,4.507L-4.53,4.507L-1.751,-2.843L-0.092,-2.843Z" style="fill:rgb(13,10,5);fill-rule:nonzero;"/>
            </g>
            <g transform="matrix(4.16667,0,0,4.16667,1090.94,19.0348)">
                <path d="M0,7.245C-0.35,7.393 -0.705,7.467 -1.06,7.467C-1.622,7.467 -2.13,7.371 -2.578,7.172C-3.028,6.978 -3.408,6.709 -3.717,6.366C-4.025,6.022 -4.261,5.619 -4.427,5.155C-4.592,4.693 -4.674,4.194 -4.674,3.657C-4.674,3.108 -4.592,2.6 -4.427,2.13C-4.261,1.659 -4.025,1.248 -3.717,0.898C-3.408,0.549 -3.028,0.275 -2.578,0.076C-2.13,-0.125 -1.622,-0.222 -1.06,-0.222C-0.681,-0.222 -0.318,-0.166 0.035,-0.055C0.389,0.062 0.709,0.227 0.993,0.448C1.278,0.666 1.513,0.937 1.698,1.261C1.883,1.582 1.996,1.953 2.038,2.371L0.495,2.371C0.397,1.961 0.214,1.651 -0.062,1.444C-0.336,1.238 -0.67,1.137 -1.06,1.137C-1.425,1.137 -1.733,1.207 -1.986,1.347C-2.24,1.488 -2.447,1.677 -2.605,1.914C-2.762,2.149 -2.876,2.419 -2.949,2.722C-3.023,3.023 -3.057,3.334 -3.057,3.657C-3.057,3.966 -3.023,4.268 -2.949,4.56C-2.876,4.85 -2.762,5.112 -2.605,5.346C-2.447,5.58 -2.24,5.768 -1.986,5.908C-1.733,6.048 -1.425,6.118 -1.06,6.118C-0.527,6.118 -0.112,5.983 0.18,5.712C0.471,5.441 0.642,5.049 0.689,4.534L-0.938,4.534L-0.938,3.329L2.151,3.329L2.151,7.302L1.121,7.302L0.957,6.467C0.668,6.84 0.35,7.098 0,7.245" style="fill:rgb(13,10,5);fill-rule:nonzero;"/>
            </g>
            <g transform="matrix(4.16667,0,0,4.16667,1133.09,43.2244)">
                <path d="M0,-4.622L-3.625,-4.622L-3.625,-5.977L2.144,-5.977L2.144,-4.702L-1.789,-0.001L2.247,-0.001L2.247,1.355L-3.933,1.355L-3.933,0.079L0,-4.622Z" style="fill:rgb(13,10,5);fill-rule:nonzero;"/>
            </g>
            <g transform="matrix(4.16667,0,0,4.16667,876.442,-2701.03)">
                <path d="M67.489,652.644L68.875,652.644L68.875,653.846L67.489,653.846L67.489,652.644ZM65.374,652.644L66.762,652.644L66.762,653.846L65.374,653.846L65.374,652.644ZM68.229,659.976L68.229,659.235L68.199,659.235C68.014,659.544 67.771,659.764 67.479,659.902C67.186,660.04 66.885,660.107 66.576,660.107C66.185,660.107 65.866,660.057 65.615,659.954C65.367,659.851 65.168,659.706 65.025,659.517C64.882,659.328 64.778,659.1 64.722,658.83C64.664,658.559 64.633,658.259 64.633,657.93L64.633,654.667L66.094,654.667L66.094,657.664C66.094,658.102 66.162,658.429 66.297,658.646C66.436,658.86 66.678,658.968 67.026,658.968C67.422,658.968 67.712,658.849 67.891,658.614C68.067,658.377 68.154,657.99 68.154,657.449L68.154,654.667L69.616,654.667L69.616,659.976L68.229,659.976" style="fill:rgb(13,10,5);fill-rule:nonzero;"/>
            </g>
            <g transform="matrix(4.16667,0,0,4.16667,1176.9,48.2677)">
                <path d="M0,-5.164L0,-4.18L0.019,-4.18C0.087,-4.344 0.18,-4.497 0.297,-4.637C0.414,-4.776 0.546,-4.895 0.697,-4.995C0.848,-5.095 1.007,-5.172 1.181,-5.226C1.352,-5.281 1.53,-5.309 1.713,-5.309C1.811,-5.309 1.916,-5.291 2.031,-5.257L2.031,-3.902C1.964,-3.915 1.881,-3.927 1.786,-3.937C1.69,-3.949 1.596,-3.954 1.51,-3.954C1.242,-3.954 1.015,-3.91 0.831,-3.819C0.648,-3.732 0.496,-3.608 0.383,-3.456C0.27,-3.301 0.189,-3.122 0.143,-2.916C0.095,-2.711 0.073,-2.489 0.073,-2.249L0.073,0.145L-1.388,0.145L-1.388,-5.164L0,-5.164" style="fill:rgb(13,10,5);fill-rule:nonzero;"/>
            </g>
            <g transform="matrix(4.16667,0,0,4.16667,876.442,-2701.58)">
                <path d="M74.756,654.798L76.214,654.798L76.214,660.107L74.756,660.107L74.756,654.798ZM76.213,653.977L74.755,653.977L74.755,652.775L76.213,652.775L76.213,653.977Z" style="fill:rgb(13,10,5);fill-rule:nonzero;"/>
            </g>
            <g transform="matrix(4.16667,0,0,4.16667,1209.36,44.8414)">
                <path d="M0,-3.389C-0.234,-3.389 -0.428,-3.336 -0.584,-3.228C-0.742,-3.123 -0.87,-2.985 -0.971,-2.818C-1.071,-2.652 -1.141,-2.466 -1.181,-2.264C-1.221,-2.061 -1.241,-1.86 -1.241,-1.663C-1.241,-1.472 -1.221,-1.277 -1.181,-1.079C-1.141,-0.88 -1.073,-0.7 -0.981,-0.54C-0.888,-0.379 -0.762,-0.245 -0.607,-0.143C-0.449,-0.041 -0.256,0.01 -0.03,0.01C0.318,0.01 0.587,-0.088 0.775,-0.282C0.963,-0.476 1.081,-0.74 1.129,-1.068L2.536,-1.068C2.44,-0.363 2.168,0.175 1.713,0.544C1.262,0.914 0.684,1.098 -0.021,1.098C-0.419,1.098 -0.783,1.031 -1.114,0.898C-1.447,0.766 -1.728,0.579 -1.961,0.339C-2.195,0.1 -2.375,-0.184 -2.506,-0.519C-2.636,-0.85 -2.701,-1.215 -2.701,-1.612C-2.701,-2.022 -2.641,-2.404 -2.521,-2.757C-2.401,-3.109 -2.225,-3.414 -1.991,-3.671C-1.76,-3.928 -1.475,-4.126 -1.141,-4.272C-0.805,-4.414 -0.422,-4.487 0.01,-4.487C0.323,-4.487 0.627,-4.446 0.918,-4.365C1.208,-4.281 1.469,-4.156 1.698,-3.987C1.929,-3.821 2.114,-3.612 2.257,-3.362C2.403,-3.113 2.483,-2.817 2.506,-2.474L1.079,-2.474C0.98,-3.083 0.622,-3.389 0,-3.389" style="fill:rgb(13,10,5);fill-rule:nonzero;"/>
            </g>
            <g transform="matrix(4.16667,0,0,4.16667,1229.43,48.8702)">
                <path d="M0,-7.332L0,-4.571L0.03,-4.571C0.217,-4.877 0.452,-5.103 0.737,-5.244C1.027,-5.384 1.307,-5.454 1.581,-5.454C1.969,-5.454 2.291,-5.402 2.541,-5.294C2.789,-5.188 2.988,-5.04 3.131,-4.853C3.273,-4.663 3.376,-4.435 3.434,-4.164C3.492,-3.894 3.521,-3.595 3.521,-3.267L3.521,0L2.062,0L2.062,-2.999C2.062,-3.438 1.995,-3.765 1.856,-3.981C1.721,-4.195 1.478,-4.303 1.129,-4.303C0.732,-4.303 0.444,-4.184 0.266,-3.948C0.088,-3.713 0,-3.324 0,-2.784L0,0L-1.459,0L-1.459,-7.332L0,-7.332" style="fill:rgb(13,10,5);fill-rule:nonzero;"/>
            </g>
        </g>
        <g transform="matrix(3.05646,0,0,3.05646,759.797,-564.061)">
            <clipPath id="_clip1">
                <rect x="243.404" y="103.844" width="95.202" height="82.589" clip-rule="nonzero"/>
            </clipPath>
            <g clip-path="url(#_clip1)">
                <g transform="matrix(1,0,0,1,269.154,176.3)">
                    <path d="M0,5.188C0,6.148 -0.488,6.889 -1.179,6.889C-1.6,6.889 -1.987,6.552 -1.987,5.828C-1.987,5.138 -1.566,4.649 -0.876,4.649C-0.589,4.649 -0.269,4.75 0,4.935L0,5.188ZM0.017,3.908C-0.371,3.723 -0.825,3.622 -1.314,3.622C-2.863,3.622 -4.042,4.514 -4.042,6.064C-4.042,7.681 -3.065,8.506 -1.971,8.506C-1.095,8.506 -0.236,8.001 0.101,6.67C0.185,7.782 0.623,8.506 1.634,8.506C1.903,8.506 2.341,8.422 2.678,8.237L2.678,6.519C2.56,6.637 2.442,6.721 2.324,6.721C2.122,6.721 2.004,6.552 2.004,6.081L2.004,2.695C2.004,0.573 0.64,0.034 -0.859,0.034C-2.425,0.034 -3.722,0.843 -3.722,2.257C-3.722,2.544 -3.689,2.897 -3.47,3.285L-1.6,2.78C-1.752,2.594 -1.819,2.392 -1.819,2.224C-1.819,1.752 -1.499,1.466 -0.943,1.466C-0.286,1.466 0.017,1.803 0.017,2.611L0.017,3.908ZM6.013,4.127C6.03,3.049 6.602,2.19 7.327,2.19C7.579,2.19 7.832,2.308 8.034,2.594L8.169,0.135C8.051,0.068 7.866,0.034 7.697,0.034C6.771,0.034 6.249,0.809 6.013,2.257L6.013,0.253L4.009,0.253L4.009,8.338L6.013,8.338L6.013,4.127ZM11.031,4.262C11.031,2.342 11.587,1.769 12.244,1.769C12.784,1.769 13.087,2.173 13.087,2.965C13.087,3.116 13.07,3.285 13.052,3.453L15.007,2.813C15.023,0.893 13.845,0.034 12.127,0.034C10.223,0.034 8.927,1.668 8.927,4.279C8.927,7.226 10.341,8.506 12.277,8.506C13.456,8.506 14.366,8.085 15.007,7.344L13.81,5.407C13.626,6.114 13.204,6.754 12.513,6.754C11.571,6.754 11.031,5.98 11.031,4.262M18.29,3.672C18.29,2.46 18.914,1.971 19.621,1.971C20.261,1.971 20.749,2.207 20.749,3.386L20.749,8.338L22.737,8.338L22.737,2.78C22.737,0.708 21.827,0.034 20.581,0.034C19.621,0.034 18.695,0.691 18.29,1.819L18.29,-3.2L16.286,-3.2L16.286,8.338L18.29,8.338L18.29,3.672ZM26.51,0.253L24.506,0.253L24.506,8.338L26.51,8.338L26.51,0.253ZM24.488,-1.313L26.526,-1.313L26.526,-3.385L24.488,-3.385L24.488,-1.313ZM30.703,1.887L32.421,1.887L32.421,0.253L30.703,0.253L30.703,-1.97L28.767,-1.717L28.767,0.253L27.773,0.253L27.773,1.887L28.699,1.887L28.699,6.047C28.699,7.917 29.743,8.506 30.838,8.506C31.495,8.506 32.271,8.253 32.792,7.832L32.253,5.828C32,6.434 31.663,6.788 31.327,6.788C30.973,6.788 30.703,6.569 30.703,5.575L30.703,1.887ZM35.672,4.75L39.916,4.75C39.933,4.615 39.933,4.363 39.933,4.228C39.933,1.331 38.822,0.034 36.852,0.034C34.88,0.034 33.617,1.55 33.617,4.228C33.617,7.159 35.083,8.506 37.104,8.506C38.114,8.506 39.26,8.136 39.9,7.344L39.057,5.575C38.805,6.418 38.081,6.839 37.323,6.839C36.379,6.839 35.723,6.081 35.672,4.75M35.655,3.403C35.756,2.106 36.093,1.55 36.868,1.55C37.676,1.55 37.912,2.325 37.912,3.403L35.655,3.403ZM47.512,0.253L45.458,0.253L43.386,3.352L43.386,-3.2L41.381,-3.2L41.381,8.338L43.386,8.338L43.386,5.929L43.959,5.087L45.559,8.338L47.748,8.338L45.171,3.453L47.512,0.253ZM51.117,1.887L52.835,1.887L52.835,0.253L51.117,0.253L51.117,-1.97L49.18,-1.717L49.18,0.253L48.187,0.253L48.187,1.887L49.113,1.887L49.113,6.047C49.113,7.917 50.157,8.506 51.252,8.506C51.908,8.506 52.683,8.253 53.205,7.832L52.666,5.828C52.414,6.434 52.077,6.788 51.74,6.788C51.386,6.788 51.117,6.569 51.117,5.575L51.117,1.887ZM58.814,8.338L60.801,8.338L60.801,0.253L58.814,0.253L58.814,4.919C58.814,6.131 58.224,6.62 57.5,6.62C56.86,6.62 56.389,6.401 56.389,5.222L56.389,0.253L54.384,0.253L54.384,5.828C54.384,7.883 55.312,8.573 56.557,8.573C57.517,8.573 58.41,7.9 58.814,6.788L58.814,8.338ZM64.472,4.127C64.489,3.049 65.063,2.19 65.786,2.19C66.039,2.19 66.291,2.308 66.493,2.594L66.628,0.135C66.51,0.068 66.325,0.034 66.156,0.034C65.23,0.034 64.708,0.809 64.472,2.257L64.472,0.253L62.468,0.253L62.468,8.338L64.472,8.338L64.472,4.127Z" style="fill:rgb(30,28,26);fill-rule:nonzero;"/>
                </g>
                <g transform="matrix(1,0,0,1,245.293,169.493)">
                    <path d="M0,-10.358L0,0.59L5.777,0.59L5.777,-1.28L2.021,-1.28L2.021,-10.358L0,-10.358ZM10.746,-2.56C10.746,-1.6 10.257,-0.859 9.567,-0.859C9.146,-0.859 8.758,-1.196 8.758,-1.92C8.758,-2.61 9.179,-3.099 9.87,-3.099C10.156,-3.099 10.476,-2.998 10.746,-2.812L10.746,-2.56ZM10.762,-3.84C10.375,-4.025 9.92,-4.126 9.432,-4.126C7.882,-4.126 6.703,-3.234 6.703,-1.684C6.703,-0.067 7.68,0.758 8.775,0.758C9.651,0.758 10.51,0.253 10.847,-1.078C10.931,0.034 11.369,0.758 12.379,0.758C12.649,0.758 13.087,0.674 13.424,0.489L13.424,-1.229C13.306,-1.111 13.188,-1.027 13.07,-1.027C12.868,-1.027 12.75,-1.196 12.75,-1.667L12.75,-5.053C12.75,-7.175 11.386,-7.714 9.887,-7.714C8.32,-7.714 7.023,-6.905 7.023,-5.49C7.023,-5.204 7.057,-4.85 7.276,-4.463L9.146,-4.968C8.994,-5.154 8.927,-5.356 8.927,-5.524C8.927,-5.996 9.247,-6.282 9.802,-6.282C10.459,-6.282 10.762,-5.945 10.762,-5.137L10.762,-3.84ZM16.724,-7.495L14.72,-7.495L14.72,0.59L16.724,0.59L16.724,-4.076C16.724,-5.288 17.347,-5.777 18.055,-5.777C18.695,-5.777 19.183,-5.541 19.183,-4.362L19.183,0.59L21.17,0.59L21.17,-4.968C21.17,-7.04 20.262,-7.714 19.015,-7.714C18.055,-7.714 17.129,-7.057 16.724,-5.928L16.724,-7.495ZM29.272,-10.947L27.284,-10.947L27.284,-6.198C26.914,-7.225 26.291,-7.714 25.331,-7.714C23.629,-7.714 22.568,-6.147 22.568,-3.318C22.568,-0.572 23.764,0.758 25.179,0.758C26.173,0.758 26.981,0.034 27.284,-1.01L27.284,0.59L29.272,0.59L29.272,-10.947ZM27.335,-3.621C27.335,-1.735 26.678,-1.044 25.971,-1.044C25.128,-1.044 24.657,-1.97 24.657,-3.52C24.657,-5.036 25.128,-5.996 25.987,-5.996C26.661,-5.996 27.335,-5.474 27.335,-3.621M34.207,-1.684C34.207,-1.095 33.752,-0.825 33.179,-0.825C32.421,-0.825 31.697,-1.263 31.293,-1.92L30.653,-0.118C31.192,0.438 32.202,0.758 33.23,0.758C34.645,0.758 36.144,0.152 36.144,-1.903C36.144,-4.581 32.741,-4.21 32.741,-5.406C32.741,-5.945 33.23,-6.13 33.718,-6.13C34.493,-6.13 35.083,-5.827 35.436,-5.103L35.941,-6.939C35.386,-7.495 34.358,-7.714 33.432,-7.714C32.101,-7.714 30.771,-6.939 30.771,-5.272C30.771,-2.627 34.207,-3.048 34.207,-1.684M39.428,-3.486C39.428,-5.406 39.984,-5.979 40.641,-5.979C41.18,-5.979 41.483,-5.575 41.483,-4.783C41.483,-4.631 41.466,-4.463 41.449,-4.295L43.403,-4.935C43.42,-6.855 42.241,-7.714 40.523,-7.714C38.619,-7.714 37.323,-6.08 37.323,-3.469C37.323,-0.522 38.737,0.758 40.674,0.758C41.853,0.758 42.763,0.337 43.403,-0.404L42.207,-2.341C42.022,-1.633 41.601,-0.993 40.91,-0.993C39.967,-0.993 39.428,-1.768 39.428,-3.486M46.788,-4.076C46.788,-5.288 47.411,-5.777 48.119,-5.777C48.759,-5.777 49.247,-5.541 49.247,-4.362L49.247,0.59L51.235,0.59L51.235,-4.968C51.235,-7.04 50.325,-7.714 49.079,-7.714C48.119,-7.714 47.192,-7.057 46.788,-5.928L46.788,-10.947L44.784,-10.947L44.784,0.59L46.788,0.59L46.788,-4.076ZM56.624,-2.56C56.624,-1.6 56.135,-0.859 55.445,-0.859C55.023,-0.859 54.636,-1.196 54.636,-1.92C54.636,-2.61 55.057,-3.099 55.748,-3.099C56.034,-3.099 56.354,-2.998 56.624,-2.812L56.624,-2.56ZM56.64,-3.84C56.253,-4.025 55.798,-4.126 55.311,-4.126C53.76,-4.126 52.582,-3.234 52.582,-1.684C52.582,-0.067 53.558,0.758 54.653,0.758C55.529,0.758 56.388,0.253 56.725,-1.078C56.81,0.034 57.247,0.758 58.257,0.758C58.527,0.758 58.965,0.674 59.302,0.489L59.302,-1.229C59.185,-1.111 59.066,-1.027 58.949,-1.027C58.746,-1.027 58.628,-1.196 58.628,-1.667L58.628,-5.053C58.628,-7.175 57.264,-7.714 55.765,-7.714C54.199,-7.714 52.901,-6.905 52.901,-5.49C52.901,-5.204 52.936,-4.85 53.154,-4.463L55.023,-4.968C54.872,-5.154 54.805,-5.356 54.805,-5.524C54.805,-5.996 55.125,-6.282 55.68,-6.282C56.337,-6.282 56.64,-5.945 56.64,-5.137L56.64,-3.84ZM67.504,-5.861L69.222,-5.861L69.222,-7.495L67.504,-7.495L67.504,-9.718L65.567,-9.465L65.567,-7.495L64.573,-7.495L64.573,-5.861L65.5,-5.861L65.5,-1.701C65.5,0.169 66.544,0.758 67.639,0.758C68.296,0.758 69.07,0.506 69.592,0.085L69.053,-1.92C68.801,-1.313 68.464,-0.96 68.127,-0.96C67.773,-0.96 67.504,-1.179 67.504,-2.172L67.504,-5.861ZM63.041,-8.303C63.041,-9.145 63.209,-9.364 63.731,-9.364C64.103,-9.364 64.455,-9.179 64.691,-8.741L65.028,-10.678C64.455,-10.998 63.832,-11.116 63.276,-11.116C61.728,-11.116 61.036,-10.274 61.036,-8.371L61.036,-7.495L60.11,-7.495L60.11,-5.861L61.036,-5.861L61.036,0.59L63.041,0.59L63.041,-5.861L65.069,-5.861L65.069,-7.495L63.041,-7.495L63.041,-8.303ZM74.14,-1.684C74.14,-1.095 73.686,-0.825 73.113,-0.825C72.355,-0.825 71.63,-1.263 71.227,-1.92L70.586,-0.118C71.125,0.438 72.136,0.758 73.163,0.758C74.578,0.758 76.077,0.152 76.077,-1.903C76.077,-4.581 72.675,-4.21 72.675,-5.406C72.675,-5.945 73.163,-6.13 73.651,-6.13C74.426,-6.13 75.016,-5.827 75.369,-5.103L75.875,-6.939C75.319,-7.495 74.292,-7.714 73.365,-7.714C72.035,-7.714 70.704,-6.939 70.704,-5.272C70.704,-2.627 74.14,-3.048 74.14,-1.684" style="fill:rgb(30,28,26);fill-rule:nonzero;"/>
                </g>
                <g transform="matrix(1,0,0,1,256.763,153.768)">
                    <path d="M0,-21.188L-4.244,-21.188L1.213,0.708L6.501,0.708L11.79,-21.188L7.68,-21.188L4.042,-3.402L0,-21.188ZM21.929,0.708L25.904,0.708L25.904,-15.461L21.929,-15.461L21.929,-6.131C21.929,-3.705 20.75,-2.728 19.302,-2.728C18.022,-2.728 17.079,-3.166 17.079,-5.524L17.079,-15.461L13.07,-15.461L13.07,-4.312C13.07,-0.202 14.923,1.179 17.415,1.179C19.335,1.179 21.121,-0.168 21.929,-2.392L21.929,0.708ZM33.416,-22.367L29.407,-22.367L29.407,0.707L33.416,0.707L33.416,-22.367ZM49.147,-15.461L45.037,-15.461L40.894,-9.263L40.894,-22.367L36.886,-22.367L36.886,0.708L40.894,0.708L40.894,-4.109L42.039,-5.794L45.24,0.708L49.619,0.708L44.465,-9.061L49.147,-15.461ZM58.646,-5.592C58.646,-3.672 57.669,-2.189 56.288,-2.189C55.445,-2.189 54.671,-2.863 54.671,-4.312C54.671,-5.693 55.513,-6.67 56.895,-6.67C57.466,-6.67 58.107,-6.467 58.646,-6.097L58.646,-5.592ZM58.679,-8.152C57.904,-8.522 56.995,-8.724 56.019,-8.724C52.919,-8.724 50.562,-6.939 50.562,-3.84C50.562,-0.606 52.515,1.044 54.704,1.044C56.456,1.044 58.174,0.034 58.848,-2.627C59.016,-0.404 59.892,1.044 61.913,1.044C62.452,1.044 63.328,0.876 64.001,0.505L64.001,-2.93C63.766,-2.695 63.53,-2.526 63.294,-2.526C62.89,-2.526 62.654,-2.863 62.654,-3.806L62.654,-10.577C62.654,-14.821 59.926,-15.899 56.928,-15.899C53.795,-15.899 51.201,-14.282 51.201,-11.453C51.201,-10.88 51.269,-10.173 51.706,-9.398L55.445,-10.409C55.142,-10.779 55.007,-11.183 55.007,-11.52C55.007,-12.463 55.647,-13.036 56.759,-13.036C58.073,-13.036 58.679,-12.362 58.679,-10.745L58.679,-8.152ZM70.436,-15.461L66.427,-15.461L66.427,0.708L70.436,0.708L70.436,-8.623C70.436,-11.049 71.682,-12.026 73.097,-12.026C74.377,-12.026 75.354,-11.554 75.354,-9.196L75.354,0.708L79.328,0.708L79.328,-10.409C79.328,-14.552 77.509,-15.899 75.017,-15.899C73.097,-15.899 71.244,-14.586 70.436,-12.329L70.436,-15.461Z" style="fill:rgb(30,28,26);fill-rule:nonzero;"/>
                </g>
                <g transform="matrix(1,0,0,1,245.118,111.154)">
                    <path d="M0,9.297L-1.954,14.114C-0.337,15.63 2.223,16.472 4.682,16.472C8.354,16.472 11.79,14.788 11.79,9.735C11.79,1.92 2.762,3.941 2.762,-0.068C2.762,-1.785 4.009,-2.459 5.592,-2.459C7.141,-2.459 9.095,-1.819 9.668,0.842L11.588,-3.503C10.341,-5.053 7.916,-6.064 5.221,-6.064C1.482,-6.064 -1.482,-3.604 -1.482,0.168C-1.482,7.95 7.546,5.76 7.546,10.24C7.546,12.093 6.468,12.901 4.884,12.901C3.032,12.901 0.674,11.487 0,9.297M19.301,3.234L22.737,3.234L22.737,-0.034L19.301,-0.034L19.301,-4.48L15.427,-3.975L15.427,-0.034L13.44,-0.034L13.44,3.234L15.292,3.234L15.292,11.554C15.292,15.293 17.381,16.472 19.571,16.472C20.884,16.472 22.434,15.967 23.478,15.125L22.4,11.116C21.896,12.329 21.221,13.036 20.547,13.036C19.84,13.036 19.301,12.598 19.301,10.611L19.301,3.234ZM34.695,16.135L38.67,16.135L38.67,-0.034L34.695,-0.034L34.695,9.297C34.695,11.722 33.516,12.699 32.068,12.699C30.788,12.699 29.844,12.261 29.844,9.903L29.844,-0.034L25.836,-0.034L25.836,11.116C25.836,15.226 27.689,16.607 30.181,16.607C32.101,16.607 33.887,15.259 34.695,13.036L34.695,16.135ZM54.839,-6.939L50.864,-6.939L50.864,2.56C50.123,0.505 48.877,-0.472 46.957,-0.472C43.554,-0.472 41.432,2.661 41.432,8.32C41.432,13.811 43.824,16.472 46.653,16.472C48.641,16.472 50.258,15.024 50.864,12.935L50.864,16.135L54.839,16.135L54.839,-6.939ZM50.965,7.714C50.965,11.487 49.651,12.868 48.237,12.868C46.552,12.868 45.609,11.015 45.609,7.916C45.609,4.884 46.552,2.964 48.27,2.964C49.618,2.964 50.965,4.008 50.965,7.714M62.35,-0.034L58.341,-0.034L58.341,16.135L62.35,16.135L62.35,-0.034ZM58.308,-3.167L62.384,-3.167L62.384,-7.31L58.308,-7.31L58.308,-3.167ZM65.045,7.983C65.045,13.407 67.672,16.472 71.883,16.472C76.296,16.472 78.654,12.699 78.654,7.983C78.654,2.829 76.195,-0.472 71.849,-0.472C67.504,-0.472 65.045,3.099 65.045,7.983M69.222,7.95C69.222,4.884 69.828,2.897 71.782,2.897C74.005,2.897 74.443,5.086 74.443,7.95C74.443,11.183 73.972,13.104 71.782,13.104C69.929,13.104 69.222,11.183 69.222,7.95" style="fill:rgb(30,28,26);fill-rule:nonzero;"/>
                </g>
            </g>
        </g>
        <g transform="matrix(4.16667,0,0,4.16667,150.759,-657.811)">
            <g transform="matrix(1,0,0,1,436.588,122.514)">
                <path d="M0,8.593L0,5.589L-2.479,5.589C-2.479,6.36 -2.461,7.075 -2.488,7.79C-2.497,8.023 -2.62,8.253 -2.683,8.458C-3.596,8.542 -4.419,8.42 -5.184,8.528L-5.184,10.743L-2.017,10.743C-0.908,10.313 -0.418,9.472 0,8.593M-7.736,-2.214C-8.797,-2.088 -9.774,-2.303 -10.783,-2.011C-11.379,-1.838 -11.895,-1.577 -12.243,-1.179C-12.616,-0.752 -12.955,-0.191 -12.982,0.421C-13.024,1.352 -12.993,2.287 -12.993,3.24L-10.826,3.24C-10.692,3.12 -10.58,3.02 -10.439,2.895L-10.439,0.309C-9.511,0.301 -8.619,0.316 -7.736,0.301L-7.736,-2.214ZM-10.518,8.49L-10.518,5.534C-10.969,5.534 -11.382,5.53 -11.795,5.535C-12.197,5.541 -12.599,5.556 -12.955,5.566L-12.955,10.706L-7.773,10.706L-7.773,8.49L-10.518,8.49ZM-2.175,3.223L0.018,3.223L0.018,-1.849C-0.104,-1.981 -0.205,-2.092 -0.266,-2.158L-5.166,-2.158L-5.166,0.339L-2.488,0.339L-2.488,2.91C-2.372,3.026 -2.292,3.106 -2.175,3.223M-15.165,13.262C-15.321,13.107 -15.401,13.027 -15.508,12.921C-15.508,8.56 -15.565,4.173 -15.479,-0.211C-15.445,-1.922 -14.558,-3.255 -12.923,-4.019C-12.14,-4.386 -11.192,-4.693 -10.464,-4.693C-6.315,-4.694 -2.167,-4.693 1.901,-4.693C2.153,-4.564 2.343,-4.467 2.551,-4.36C2.551,0.092 2.579,4.555 2.524,9.017C2.515,9.847 2.177,10.642 1.646,11.38C1.247,11.934 0.72,12.289 0.229,12.677C-0.253,13.06 -0.859,13.287 -1.57,13.281C-6.1,13.243 -10.628,13.262 -15.165,13.262" style="fill:rgb(0,154,216);fill-rule:nonzero;"/>
            </g>
            <g transform="matrix(1,0,0,1,452.625,128.784)">
                <path d="M0,-3.76C0,-4.109 0.079,-4.439 -0.019,-4.705C-0.173,-5.126 -0.161,-5.62 -0.554,-5.956C-0.933,-6.28 -1.338,-6.439 -1.842,-6.424C-2.665,-6.4 -3.489,-6.418 -4.286,-6.418L-4.286,-2.587L-0.933,-2.587C-0.61,-2.992 -0.294,-3.391 0,-3.76M-4.041,-0.468C-4.142,-0.367 -4.223,-0.287 -4.339,-0.172L-4.339,4.459C-4.77,4.571 -5.18,4.678 -5.542,4.771C-5.796,4.522 -5.984,4.336 -6.172,4.153L-6.172,-7.647C-5.731,-8.258 -5.075,-8.433 -4.369,-8.458C-3.648,-8.483 -2.918,-8.531 -2.205,-8.448C-1.024,-8.311 0.169,-8.141 1.003,-7.129C1.417,-6.626 1.731,-6.094 1.844,-5.431C1.916,-5.01 2.196,-4.58 2.035,-4.172C1.882,-3.783 1.932,-3.371 1.802,-3.02C1.61,-2.5 1.338,-1.919 0.919,-1.595C0.438,-1.223 -0.085,-0.872 -0.751,-0.694C-1.86,-0.397 -2.97,-0.638 -4.041,-0.468" style="fill:rgb(50,81,120);fill-rule:nonzero;"/>
            </g>
            <g transform="matrix(1,0,0,1,541.669,125.224)">
                <path d="M0,6.472C0.865,6.37 1.785,6.696 2.594,6.145L2.594,4.219L-0.035,4.219C-0.286,4.379 -0.559,4.553 -0.81,4.713L-0.81,5.656C-0.539,5.928 -0.273,6.197 0,6.472M1.477,0.325C0.771,0.225 0.149,0.553 -0.449,0.813C-0.733,0.936 -0.98,0.994 -1.267,1.006L-1.952,1.006C-2.056,0.866 -2.179,0.735 -2.256,0.582C-2.331,0.432 -2.36,0.26 -2.409,0.097L-2.181,-0.13L-2.181,-0.45C-0.566,-1.448 1.138,-1.834 3.086,-1.144C3.23,-1 3.467,-0.753 3.716,-0.52C4.392,0.112 4.674,0.904 4.676,1.806C4.68,3.545 4.677,5.283 4.677,6.997C3.962,8.008 2.896,8.209 1.783,8.273C1.216,8.306 0.644,8.281 0.073,8.279C-0.188,8.277 -1.249,7.966 -1.495,7.825L-1.724,7.597C-1.876,7.446 -2.028,7.294 -2.181,7.143C-2.257,7.067 -2.333,6.991 -2.409,6.915C-2.485,6.688 -2.562,6.461 -2.638,6.234C-2.672,6.061 -2.524,5.799 -2.866,5.779C-2.851,5.314 -2.843,4.872 -2.674,4.401C-2.497,3.909 -2.337,3.429 -1.913,3.15C-1.333,2.766 -0.742,2.354 0.017,2.367C0.731,2.38 1.447,2.37 2.162,2.37L2.601,2.37L2.601,1.07C2.459,0.975 2.311,0.877 2.162,0.779C2.143,0.439 1.879,0.586 1.705,0.552L1.477,0.325Z" style="fill:rgb(50,81,120);fill-rule:nonzero;"/>
            </g>
            <g transform="matrix(1,0,0,1,462.216,125.886)">
                <path d="M0,5.524C1.164,5.966 2.188,5.881 3.177,5.478L3.177,3.549L0.404,3.549C0.157,3.759 -0.044,3.929 -0.287,4.136C-0.192,4.593 -0.099,5.047 0,5.524M-2.276,3.948C-2.065,3.539 -1.936,3.157 -1.701,2.857C-1.109,2.098 -0.272,1.758 0.67,1.715C1.498,1.678 2.329,1.708 3.184,1.708L3.184,0.658C2.556,-0.657 1.266,-0.621 -0.337,0.344C-0.631,0.344 -0.936,0.346 -1.239,0.34C-1.267,0.34 -1.294,0.295 -1.322,0.27C-1.403,0.189 -1.483,0.109 -1.577,0.016L-1.577,-1.105C-0.503,-1.891 0.73,-2.243 2.058,-2.145C4.012,-2.002 5.136,-0.857 5.248,1.011C5.342,2.557 5.273,4.114 5.265,5.666C5.261,6.404 4.688,7.252 3.997,7.375C2.584,7.627 1.18,7.767 -0.273,7.421C-1.393,7.155 -2.1,5.871 -2.267,4.887C-2.323,4.556 -2.276,4.207 -2.276,3.948" style="fill:rgb(50,81,120);fill-rule:nonzero;"/>
            </g>
            <g transform="matrix(1,0,0,1,525.823,129.478)">
                <path d="M0,-1.695L3.611,-1.695C3.59,-2.726 3.338,-3.562 2.281,-3.93C0.543,-3.93 -0.06,-3.346 0,-1.695M-0.119,0.2C0.294,0.946 0.183,1.909 1.189,2.206C1.605,2.206 2.038,2.279 2.433,2.189C3.012,2.058 3.564,1.81 4.208,1.584C4.402,1.696 4.665,1.846 4.944,2.006L4.944,3.043C4.315,3.723 3.481,4.016 2.538,4.021C1.766,4.025 1.001,4.061 0.232,3.813C-0.838,3.468 -1.774,2.199 -1.857,1.046C-1.95,-0.232 -1.897,-1.523 -1.866,-2.808C-1.857,-3.151 -1.694,-3.49 -1.59,-3.877C-1.359,-4.106 -1.067,-4.354 -0.826,-4.644C-0.108,-5.505 0.882,-5.717 1.911,-5.735C3.129,-5.756 4.652,-4.849 5.182,-3.82C5.354,-3.484 5.404,-3.064 5.426,-2.677C5.463,-1.999 5.436,-1.318 5.436,-0.572C5.112,-0.341 4.758,-0.087 4.356,0.2L-0.119,0.2Z" style="fill:rgb(50,81,120);fill-rule:nonzero;"/>
            </g>
            <g transform="matrix(1,0,0,1,481.869,131.914)">
                <path d="M0,-6.352C-0.254,-6.098 -0.721,-5.827 -0.859,-5.439C-0.998,-5.05 -1.374,-4.603 -1.021,-4.093C-0.438,-4.093 0.163,-4.084 0.765,-4.095C1.354,-4.105 1.949,-4.048 2.536,-4.127C2.391,-6.002 1.707,-6.507 0,-6.352M-2.823,-6.223C-2.238,-6.517 -2.105,-7.126 -1.571,-7.435C-0.812,-7.875 0.185,-8.294 0.975,-8.17C1.781,-8.044 2.578,-7.833 3.227,-7.276C3.748,-6.827 3.954,-6.178 4.295,-5.616C4.381,-5.475 4.354,-5.258 4.355,-5.076C4.362,-4.433 4.358,-3.789 4.358,-3.116C3.911,-2.476 3.29,-2.23 2.48,-2.262C1.307,-2.309 0.13,-2.274 -1.15,-2.274C-1.025,-1.868 -0.928,-1.509 -0.804,-1.16C-0.568,-0.5 -0.078,-0.209 0.614,-0.228C1.052,-0.24 1.47,-0.233 1.899,-0.437C2.421,-0.686 3.01,-0.793 3.598,-0.644C3.686,-0.557 3.766,-0.477 3.874,-0.37L3.874,0.537C3.866,0.551 3.834,0.615 3.794,0.672C3.431,1.186 2.85,1.372 2.298,1.457C0.804,1.687 -0.744,1.942 -1.939,0.653C-2.589,-0.046 -3.024,-0.864 -2.963,-1.877C-2.927,-2.481 -2.973,-3.089 -2.952,-3.694C-2.924,-4.534 -2.868,-5.373 -2.823,-6.223" style="fill:rgb(50,81,120);fill-rule:nonzero;"/>
            </g>
            <g transform="matrix(1,0,0,1,505.439,131.531)">
                <path d="M0,-5.969C-0.852,-5.64 -1.359,-5.15 -1.504,-4.379C-1.674,-3.469 -1.694,-2.559 -1.483,-1.642C-1.314,-0.907 -1.272,-0.12 -0.326,0.126C0.092,0.154 0.56,0.221 0.997,0.135C1.425,0.05 1.865,-0.046 2.071,-0.603C2.271,-1.142 2.521,-1.645 2.507,-2.238C2.482,-3.155 2.614,-4.084 2.22,-5C1.665,-5.701 0.954,-6.175 0,-5.969M-0.719,1.972C-1.454,1.62 -2.066,1.251 -2.57,0.697C-3.136,0.074 -3.415,-0.636 -3.433,-1.446C-3.459,-2.617 -3.439,-3.789 -3.439,-4.808C-3.24,-5.257 -3.093,-5.574 -2.956,-5.897C-2.589,-6.759 -1.841,-7.275 -1.033,-7.521C-0.474,-7.69 0.171,-8.002 0.789,-7.786C1.386,-7.577 2.021,-7.536 2.6,-7.191C2.998,-6.952 3.411,-6.688 3.584,-6.341C3.957,-5.591 4.474,-4.879 4.354,-3.927C4.251,-3.108 4.323,-2.266 4.335,-1.434C4.345,-0.766 4.103,-0.153 3.748,0.361C3.246,1.09 2.499,1.59 1.69,1.962C1.534,2.033 1.315,1.972 1.125,1.972L-0.719,1.972Z" style="fill:rgb(50,81,120);fill-rule:nonzero;"/>
            </g>
            <g transform="matrix(1,0,0,1,469.541,132.002)">
                <path d="M0,-7.016C0.268,-7.285 0.535,-7.553 0.72,-7.739C1.127,-7.861 1.43,-7.967 1.74,-8.04C2.019,-8.106 2.305,-8.122 2.587,-8.186C3.926,-8.491 5.211,-8.2 6.276,-7.343C7.127,-6.66 7.502,-5.652 7.53,-4.582C7.577,-2.766 7.543,-0.949 7.543,0.965C7.386,1.077 7.171,1.23 6.826,1.475L6.004,1.475C5.901,1.317 5.737,1.067 5.477,0.667L5.477,-5.226C5.218,-5.573 4.96,-5.919 4.742,-6.21C4.224,-6.302 3.797,-6.447 3.374,-6.434C2.956,-6.422 2.542,-6.251 2.081,-6.139L2.081,0.909C1.881,1.108 1.72,1.269 1.521,1.465L0.54,1.465C0.376,1.305 0.187,1.119 0,0.935L0,-7.016Z" style="fill:rgb(57,86,124);fill-rule:nonzero;"/>
            </g>
            <g transform="matrix(1,0,0,1,500.399,132.557)">
                <path d="M0,-7.822L0,-7.102C-0.167,-6.971 -0.375,-6.811 -0.706,-6.554C-0.789,-6.554 -1.055,-6.521 -1.309,-6.562C-1.693,-6.625 -2.073,-6.726 -2.448,-6.833C-3.428,-7.114 -3.435,-7.117 -4.329,-6.458L-4.329,-5.523C-4.269,-5.497 -4.173,-5.468 -4.09,-5.417C-3.543,-5.078 -2.941,-4.886 -2.321,-4.734C-1.769,-4.598 -1.251,-4.343 -0.797,-4.026C-0.275,-3.661 0.057,-3.137 0.007,-2.437C-0.027,-1.951 0,-1.46 0,-0.843C-0.445,-0.364 -0.946,0.176 -1.424,0.69C-3.721,1.205 -4.546,0.941 -6.071,0.477C-6.389,0.04 -6.451,-0.454 -6.384,-1.011C-6.299,-1.086 -6.187,-1.186 -6.052,-1.305C-5.495,-1.394 -4.912,-1.344 -4.371,-1.094C-3.626,-0.749 -2.899,-0.788 -2.154,-1.126C-2.053,-1.323 -1.94,-1.541 -1.828,-1.76C-1.828,-1.96 -2.28,-2.622 -2.481,-2.689C-3.183,-2.922 -3.902,-3.109 -4.588,-3.38C-6.325,-4.066 -7.133,-6.075 -5.687,-7.808C-5.146,-8.455 -4.284,-8.639 -3.494,-8.811C-2.499,-9.027 -1.566,-8.549 -0.612,-8.354C-0.392,-8.308 -0.22,-8.022 0,-7.822" style="fill:rgb(50,81,120);fill-rule:nonzero;"/>
            </g>
            <g transform="matrix(1,0,0,1,517.274,125.993)">
                <path d="M0,4.982C0.248,5.103 0.437,5.194 0.655,5.301C0.757,5.515 0.877,5.767 0.955,5.932C0.955,6.516 0.363,7.155 -0.2,7.283C-0.548,7.361 -0.894,7.478 -1.246,7.501C-1.813,7.537 -2.392,7.562 -2.953,7.495C-3.439,7.437 -3.909,7.3 -4.325,6.951C-4.705,6.631 -5.083,6.302 -5.327,5.895C-5.651,5.355 -5.975,4.806 -5.921,4.094C-5.848,3.117 -5.928,2.129 -5.896,1.149C-5.851,-0.298 -5.07,-1.357 -3.807,-1.904C-3.028,-2.24 -2.12,-2.58 -1.189,-2.056C-0.836,-1.856 -0.353,-1.884 -0.015,-1.824C0.325,-1.491 0.615,-1.207 0.978,-0.852C0.906,-0.656 0.799,-0.359 0.695,-0.076C0.495,0.025 0.306,0.12 0.065,0.241C0.021,0.222 -0.073,0.171 -0.173,0.14C-0.813,-0.057 -1.449,-0.272 -2.099,-0.431C-2.286,-0.476 -2.523,-0.378 -2.722,-0.304C-2.982,-0.206 -3.229,-0.067 -3.56,0.092C-3.805,0.448 -3.872,0.931 -3.854,1.456C-3.823,2.286 -3.83,3.119 -3.851,3.949C-3.863,4.479 -3.808,4.968 -3.39,5.349C-1.915,5.774 -1.462,5.727 0,4.982" style="fill:rgb(50,81,120);fill-rule:nonzero;"/>
            </g>
            <g transform="matrix(1,0,0,1,550.231,129.646)">
                <path d="M0,-5.689L1.946,-5.689C2.129,-5.503 2.314,-5.315 2.48,-5.146L2.48,-4.177C2.365,-4.063 2.284,-3.982 2.165,-3.864L-0.193,-3.864L-0.193,1.248C-0.057,1.479 0.089,1.724 0.262,2.016C0.725,2.045 1.189,2.133 1.623,1.799C1.905,2.049 2.405,2.016 2.515,2.493L2.515,3.302C2.242,3.523 2.035,3.69 1.829,3.857L0.229,3.857C-1.173,3.575 -1.851,2.682 -2.057,1.357L-2.057,-8.941C-1.462,-9.546 -0.844,-9.301 -0.229,-9.098L-0.229,-6.144C-0.193,-5.971 -0.342,-5.708 0,-5.689" style="fill:rgb(43,78,117);fill-rule:nonzero;"/>
            </g>
            <g transform="matrix(1,0,0,1,536.974,122.146)">
                <path d="M-0.457,9.539L0.914,9.539L0.914,10.903C0.686,11.054 0.457,11.206 0.229,11.357L-1.487,11.357C-2.071,11.13 -2.463,10.977 -2.904,10.805C-2.958,10.651 -2.977,10.364 -3.13,10.2C-3.562,9.735 -3.67,9.212 -3.666,8.6C-3.647,5.316 -3.657,2.034 -3.657,-1.261C-3.473,-1.439 -3.281,-1.622 -3.076,-1.818L-2.383,-1.818C-2.227,-1.647 -2.051,-1.452 -1.814,-1.191L-1.814,1.785L0.307,1.785C0.539,2.011 0.729,2.196 0.914,2.377L0.914,3.403C0.741,3.437 0.477,3.29 0.457,3.63L-1.828,3.63L-1.828,8.63C-1.794,8.802 -1.941,9.065 -1.6,9.084C-1.418,9.732 -0.88,9.493 -0.457,9.539Z" style="fill:rgb(43,78,117);fill-rule:nonzero;"/>
            </g>
            <g transform="matrix(1,0,0,1,456.318,133.211)">
                <path d="M0,-12.585C0.122,-12.707 0.203,-12.787 0.295,-12.879L1.249,-12.879C1.385,-12.718 1.554,-12.517 1.777,-12.252L1.777,-0.234C1.634,-0.13 1.421,0.024 1.048,0.294C0.84,0.247 0.431,0.155 0,0.058L0,-12.585Z" style="fill:rgb(43,78,117);fill-rule:nonzero;"/>
            </g>
            <g transform="matrix(1,0,0,1,490.428,133.47)">
                <path d="M0,-9.786C0.594,-9.722 1.321,-9.643 2.065,-9.562C2.243,-9.343 2.408,-9.139 2.639,-8.855L2.639,-8.226C2.492,-8.116 2.282,-7.958 1.955,-7.713C1.637,-7.778 1.099,-7.483 0.644,-7.962C0.325,-7.781 0.019,-7.606 -0.292,-7.43L-0.292,-0.508C-0.459,-0.402 -0.682,-0.261 -0.904,-0.12L-0.816,0L-1.826,0C-1.996,-0.166 -2.186,-0.35 -2.372,-0.533C-2.372,-2.615 -2.383,-4.692 -2.366,-6.768C-2.358,-7.714 -2.016,-8.541 -1.251,-9.133C-0.95,-9.366 -0.568,-9.495 0,-9.786" style="fill:rgb(57,86,124);fill-rule:nonzero;"/>
            </g>
            <g transform="matrix(1,0,0,1,519.83,124.149)">
                <path d="M0,8.786C0,6.258 -0.008,3.729 0.008,1.2C0.01,0.777 0.115,0.355 0.166,-0.012C0.727,-0.486 1.241,-0.533 1.891,-0.041C1.937,0.313 2.046,0.768 2.049,1.225C2.065,3.716 2.057,6.207 2.057,8.828C1.914,8.917 1.69,9.057 1.467,9.196C1.497,9.237 1.527,9.278 1.557,9.319L0.536,9.319C0.375,9.16 0.187,8.973 0,8.786" style="fill:rgb(57,86,124);fill-rule:nonzero;"/>
            </g>
            <g transform="matrix(1,0,0,1,452.132,138.518)">
                <path d="M0,6.726C-0.122,6.847 -0.203,6.927 -0.312,7.036C-0.426,6.901 -0.623,6.776 -0.635,6.636C-0.674,6.148 -0.649,5.655 -0.649,5.164L-0.649,1.881C-0.942,1.923 -1.022,2.077 -1.127,2.328C-1.408,3.006 -1.777,3.649 -2.134,4.294C-2.307,4.608 -2.529,4.895 -2.76,5.239C-3.922,4.326 -4.168,2.93 -4.887,1.828C-4.895,1.833 -4.927,1.849 -4.947,1.874C-4.969,1.901 -4.991,1.936 -4.991,1.968C-4.993,3.552 -4.993,5.135 -4.993,6.738C-5.182,6.856 -5.358,6.966 -5.54,7.08C-5.608,6.962 -5.674,6.901 -5.674,6.84C-5.68,4.502 -5.679,2.165 -5.679,-0.207L-5.002,-0.207C-4.324,1.109 -3.615,2.485 -2.885,3.903C-2.087,2.456 -1.331,1.084 -0.538,-0.354C-0.313,-0.193 -0.17,-0.091 0,0.029L0,6.726Z" style="fill:rgb(57,86,124);fill-rule:nonzero;"/>
            </g>
            <g transform="matrix(1,0,0,1,510.262,144.317)">
                <path d="M0,-5.149L0,0.299L1.562,0.299C1.931,-0.011 2.344,-0.36 2.692,-0.653L2.692,-4.092C2.167,-5.463 1.024,-5.056 0,-5.149M1.954,0.974L-0.635,0.974C-0.747,0.863 -0.827,0.783 -0.928,0.684L-0.928,-5.52C-0.79,-5.591 -0.552,-5.714 -0.312,-5.837C0.392,-6.014 1.225,-6.123 2.05,-5.821C2.868,-5.522 3.285,-4.895 3.605,-3.933L3.605,-0.737C3.1,0.137 2.799,0.449 1.954,0.974" style="fill:rgb(67,93,130);fill-rule:nonzero;"/>
            </g>
            <g transform="matrix(1,0,0,1,530.569,142.949)">
                <path d="M0,1.921C0.382,1.766 0.77,1.609 1.124,1.465L1.124,-1.903L-0.661,-1.903C-0.822,-1.631 -0.968,-1.386 -1.139,-1.097C-1.139,-0.741 -1.107,-0.325 -1.146,0.086C-1.228,0.989 -0.891,1.613 0,1.921M0.324,3.962C0.608,3.69 0.881,3.427 1.144,3.175L1.144,2.393C0.931,2.404 0.66,2.337 0.534,2.442C0.218,2.705 -0.123,2.661 -0.397,2.515C-0.739,2.332 -1.227,2.435 -1.437,1.973C-1.597,1.619 -1.852,1.321 -1.834,0.883C-1.802,0.053 -1.824,-0.78 -1.824,-1.605C-1.494,-1.933 -1.171,-2.254 -0.787,-2.637C0.024,-2.54 0.926,-2.847 1.796,-2.316L1.796,3.354C1.353,4.573 0.396,4.768 -0.774,4.613C-1.003,4.371 -1.598,4.421 -1.606,3.84C-0.904,3.444 -0.308,4.111 0.324,3.962" style="fill:rgb(57,86,124);fill-rule:nonzero;"/>
            </g>
            <g transform="matrix(1,0,0,1,484.672,139.49)">
                <path d="M0,4.853C0.504,4.964 0.921,5.092 1.347,5.14C1.759,5.186 2.18,5.149 2.584,5.149C2.758,4.977 2.92,4.816 3.118,4.618L3.118,3.661C2.725,3.022 2.028,2.743 1.377,2.436C0.771,2.15 0.206,1.872 0.001,1.168C-0.181,0.1 0.127,-0.756 1.333,-1.214L3.041,-1.214C3.325,-1.014 3.608,-0.814 4.098,-0.468C3.775,-0.357 3.588,-0.293 3.4,-0.228C3.44,-0.182 3.48,-0.136 3.521,-0.089C3.018,-0.237 2.52,-0.475 2.011,-0.501C1.661,-0.52 1.295,-0.244 0.913,-0.089L0.913,1.257C1.738,1.709 2.638,2.201 3.5,2.673C3.701,3.042 3.968,3.364 4.047,3.726C4.13,4.1 3.953,4.509 3.898,4.884C3.831,5.345 3.295,5.363 3.326,5.799C2.756,5.886 2.178,6.067 1.614,6.031C1.065,5.997 0.53,5.739 -0.054,5.566C-0.036,5.328 -0.021,5.122 0,4.853" style="fill:rgb(67,93,130);fill-rule:nonzero;"/>
            </g>
            <g transform="matrix(1,0,0,1,500.171,139.345)">
                <path d="M0,5.204C0.001,4.185 0,3.074 0,1.873C-0.586,1.775 -1.149,1.68 -1.633,1.599C-1.91,1.863 -2.102,2.046 -2.31,2.244C-2.16,3.246 -2.558,4.311 -2.001,5.215C-1.645,5.329 -1.345,5.5 -1.044,5.501C-0.739,5.503 -0.435,5.336 0,5.204M-0.04,-1.046L0.652,-1.046L0.652,5.669C0.62,5.701 0.572,5.762 0.512,5.807C0.426,5.87 0.337,5.955 0.239,5.971C-0.408,6.079 -1.059,6.172 -1.579,6.25C-1.922,6.049 -2.162,5.952 -2.347,5.791C-2.743,5.445 -2.992,5.022 -2.977,4.461C-2.955,3.667 -2.972,2.871 -2.972,2.107C-2.675,1.154 -1.987,0.902 -1.094,0.972C-0.758,0.999 -0.418,0.976 -0.04,0.976L-0.04,-1.046Z" style="fill:rgb(61,89,127);fill-rule:nonzero;"/>
            </g>
            <g transform="matrix(1,0,0,1,461.075,139.338)">
                <path d="M0,5.195C0.458,4.203 0.136,3.171 0.245,2.241C-0.003,1.995 -0.164,1.835 -0.329,1.671C-0.908,1.661 -1.503,1.582 -2.031,1.984L-2.031,5.215C-1.376,5.502 -0.733,5.562 0,5.195M-2.695,-1.039L-2.05,-1.039L-2.05,0.983L-0.937,0.983C0.224,0.986 0.311,1.034 0.922,2.014C0.922,2.748 0.896,3.504 0.931,4.258C0.958,4.846 0.821,5.361 0.364,5.728C-0.063,6.071 -0.584,6.234 -1.145,6.207C-1.286,6.2 -1.428,6.159 -1.565,6.122C-1.937,6.022 -2.309,5.915 -2.695,5.806L-2.695,-1.039Z" style="fill:rgb(61,89,127);fill-rule:nonzero;"/>
            </g>
            <g transform="matrix(1,0,0,1,473.675,141.462)">
                <path d="M0,3.112C0.687,3.308 1.355,3.7 2.016,3.032L2.016,1.579C1.318,1.627 0.624,1.431 0,1.905L0,3.112ZM-0.925,1.918C0.071,0.927 0.071,0.927 1.943,0.884C1.971,0.858 2.02,0.832 2.021,0.804C2.027,0.579 2.024,0.355 2.024,0.086C1.858,-0.063 1.662,-0.239 1.427,-0.45C0.839,-0.567 0.268,-0.389 -0.33,0.141C-0.498,-0.053 -0.635,-0.211 -0.848,-0.457C-0.487,-0.716 -0.209,-0.915 0.087,-1.128L1.974,-1.128C2.279,-0.764 2.63,-0.348 2.947,0.029L2.947,3.294C2.223,4.121 1.263,4.24 0.262,3.995C-0.095,3.907 -0.441,3.587 -0.683,3.286C-0.988,2.905 -0.969,2.401 -0.925,1.918" style="fill:rgb(67,93,130);fill-rule:nonzero;"/>
            </g>
            <g transform="matrix(1,0,0,1,520.019,141.409)">
                <path d="M0,3.141L0,1.629C-0.79,1.697 -1.584,1.443 -2.233,2.001L-2.233,2.882C-1.584,3.704 -0.812,3.446 0,3.141M0.726,-0.163L0.726,3.672C0.263,3.82 -0.226,4.015 -0.732,4.13C-1.283,4.255 -1.812,4.036 -2.326,3.864C-2.904,3.635 -2.906,3.023 -3.164,2.555C-2.85,2.082 -2.905,1.44 -2.16,1.14C-1.509,0.876 -0.908,1.092 -0.245,0.919L-0.245,-0.122C-0.314,-0.19 -0.395,-0.27 -0.504,-0.378L-1.64,-0.378C-1.898,-0.243 -2.117,-0.129 -2.435,0.038C-2.544,-0.203 -2.662,-0.464 -2.765,-0.69C-2.488,-0.863 -2.314,-1.06 -2.128,-1.072C-1.523,-1.114 -0.915,-1.088 -0.206,-1.088C0.087,-0.797 0.431,-0.456 0.726,-0.163" style="fill:rgb(67,93,130);fill-rule:nonzero;"/>
            </g>
            <g transform="matrix(1,0,0,1,493.089,141.368)">
                <path d="M0,2.96C0.769,3.618 1.493,3.676 2.255,3.184L2.255,1.71L0.59,1.71C0.379,1.898 0.182,2.074 0,2.236L0,2.96ZM-0.461,-0.138C-0.574,-0.766 0.062,-0.744 0.343,-1.04C1.29,-1.046 2.303,-1.232 2.966,-0.214L2.966,3.695C2.347,3.986 1.673,4.192 0.936,4.181C0.184,4.169 -0.221,3.611 -0.689,3.156L-0.689,2.362C-0.665,2.224 -0.647,2.084 -0.613,1.948C-0.57,1.781 -0.513,1.618 -0.461,1.453C0.295,0.854 1.19,1.015 2.054,0.999L2.282,0.772L2.282,0.317L2.054,0.09C1.953,-0.03 1.854,-0.149 1.701,-0.331C1.082,-0.617 0.446,-0.107 -0.232,-0.138L-0.461,-0.138Z" style="fill:rgb(61,89,127);fill-rule:nonzero;"/>
            </g>
            <g transform="matrix(1,0,0,1,456.511,141.944)">
                <path d="M0,2.208C0,1.596 -0.029,1.065 0.008,0.538C0.05,-0.053 -0.142,-0.53 -0.565,-0.936L-1.772,-0.936C-2.001,-0.625 -2.258,-0.275 -2.509,0.067C-2.525,0.879 -2.579,1.687 -2.167,2.505C-1.909,2.641 -1.598,2.806 -1.214,3.009C-0.792,2.731 -0.377,2.457 0,2.208M0.687,-0.482C0.687,0.209 0.676,1.039 0.689,1.867C0.701,2.559 0.39,3.099 -0.211,3.359C-0.91,3.662 -1.668,3.812 -2.34,3.211C-2.882,2.729 -3.273,2.195 -3.209,1.409C-3.162,0.846 -3.2,0.275 -3.2,-0.373C-2.911,-0.754 -2.584,-1.187 -2.268,-1.604L-0.429,-1.604C-0.08,-1.253 0.264,-0.908 0.687,-0.482" style="fill:rgb(61,89,127);fill-rule:nonzero;"/>
            </g>
            <g transform="matrix(1,0,0,1,525.245,144.981)">
                <path d="M0,-4.033C-0.925,-3.083 -0.503,-2.063 -0.613,-1.259C-0.363,-0.587 0.026,-0.205 0.638,-0.112C1.29,-0.2 1.807,-0.633 1.856,-1.161C1.937,-2.013 2.13,-2.941 1.508,-3.822C1.034,-3.888 0.497,-3.964 0,-4.033M1.992,0.087C1.429,0.303 0.89,0.769 0.202,0.545C-0.023,0.412 -0.225,0.24 -0.457,0.168C-1.139,-0.046 -1.299,-0.556 -1.301,-1.176C-1.302,-1.895 -1.301,-2.615 -1.301,-3.411C-1.01,-3.795 -0.681,-4.229 -0.381,-4.623C0.87,-4.736 2.028,-4.802 2.581,-3.271C2.501,-2.266 2.868,-1.053 1.992,0.087" style="fill:rgb(61,89,127);fill-rule:nonzero;"/>
            </g>
            <g transform="matrix(1,0,0,1,489.428,139.418)">
                <path d="M0,4.995L0,-0.832C0.092,-0.92 0.224,-1.044 0.398,-1.209C0.562,-1.094 0.705,-0.993 0.876,-0.874L0.876,0.863C1.27,0.877 1.634,0.875 1.992,0.913C2.097,0.925 2.188,1.055 2.286,1.131L2.286,1.485C2.032,1.694 1.653,1.383 1.6,1.813L0.971,1.813C0.853,2.303 0.933,2.814 0.917,3.317C0.902,3.8 0.914,4.284 0.914,4.767C0.948,4.94 0.801,5.203 1.143,5.222L2.286,5.222L2.286,5.45C2.218,5.671 2.149,5.892 2.092,6.078C1.535,6.165 1.086,6.204 0.686,5.904C0.457,5.601 0.229,5.298 0,4.995" style="fill:rgb(90,109,144);fill-rule:nonzero;"/>
            </g>
            <g transform="matrix(1,0,0,1,480.194,138.8)">
                <path d="M0,6.242C-0.224,6.483 -0.324,6.591 -0.446,6.722L-1.23,6.722C-2.277,6.449 -2.443,5.8 -2.433,4.999C-2.407,3.187 -2.425,1.375 -2.425,-0.48L-1.784,-0.48C-1.647,0.12 -1.816,0.795 -1.696,1.486L-0.476,1.486C-0.333,1.684 -0.209,1.856 -0.001,2.143C-0.562,2.178 -0.994,2.205 -1.425,2.232C-1.507,2.314 -1.588,2.394 -1.703,2.51L-1.703,5.254C-1.62,5.42 -1.542,5.577 -1.435,5.794L-0.649,5.794C-0.382,5.978 -0.23,6.083 0,6.242" style="fill:rgb(67,93,130);fill-rule:nonzero;"/>
            </g>
            <g transform="matrix(1,0,0,1,470.646,143.663)">
                <path d="M0,-3.337L1.374,-3.337L1.374,-2.687L0.069,-2.687L0.069,0.667C0.127,0.725 0.208,0.805 0.367,0.963L1.477,0.963C1.378,1.325 1.307,1.583 1.241,1.824C0.349,2.03 -0.171,1.603 -0.61,1.125L-0.61,-5.367L0,-5.367L0,-3.337Z" style="fill:rgb(57,86,124);fill-rule:nonzero;"/>
            </g>
            <g transform="matrix(1,0,0,1,503.964,138.451)">
                <path d="M0,7.077C-0.747,7.217 -1.255,6.821 -1.714,6.325L-1.714,-0.14L-1.077,-0.14L-1.077,1.845L0.295,1.845C0.307,2.084 0.316,2.289 0.328,2.535L-1.003,2.535L-1.003,5.894C-0.91,5.986 -0.83,6.066 -0.711,6.185L0.224,6.185C0.444,6.588 0.3,6.854 0,7.077" style="fill:rgb(61,89,127);fill-rule:nonzero;"/>
            </g>
            <g transform="matrix(1,0,0,1,521.927,145.239)">
                <path d="M0,-6.678C0.145,-6.803 0.254,-6.897 0.419,-7.04C0.573,-6.903 0.706,-6.785 0.854,-6.653L0.854,-0.007C0.729,0.113 0.62,0.216 0.466,0.362C0.32,0.264 0.175,0.165 0,0.048L0,-6.678Z" style="fill:rgb(67,93,130);fill-rule:nonzero;"/>
            </g>
            <g transform="matrix(1,0,0,1,465.985,145.671)">
                <path d="M0,-7.498C0.072,-7.296 0.139,-7.109 0.206,-6.922C0.255,-6.968 0.304,-7.014 0.352,-7.061L0.352,-0.441C0.201,-0.325 0.033,-0.195 -0.22,0C-0.35,-0.659 -0.591,-1.159 -0.574,-1.762C-0.53,-3.352 -0.552,-4.943 -0.565,-6.534C-0.568,-6.89 -0.535,-7.199 0,-7.498" style="fill:rgb(61,89,127);fill-rule:nonzero;"/>
            </g>
            <g transform="matrix(1,0,0,1,468.595,140.74)">
                <path d="M0,4.513C-0.148,4.644 -0.257,4.739 -0.418,4.88C-0.57,4.751 -0.705,4.637 -0.858,4.507L-0.858,-0.367L0,-0.367L0,4.513Z" style="fill:rgb(90,109,144);fill-rule:nonzero;"/>
            </g>
            <g transform="matrix(1,0,0,1,515.912,140.74)">
                <path d="M0,4.514C-0.146,4.642 -0.255,4.738 -0.415,4.879C-0.567,4.752 -0.703,4.639 -0.857,4.51L-0.857,-0.365L0,-0.365L0,4.514Z" style="fill:rgb(90,109,144);fill-rule:nonzero;"/>
            </g>
            <g transform="matrix(1,0,0,1,541.358,122.353)">
                <path d="M0,-2.332C0.359,-1.975 0.602,-1.734 0.857,-1.479L0.857,-0.76C0.618,-0.554 0.333,-0.309 -0.025,0L-0.634,0C-0.848,-0.242 -1.096,-0.523 -1.434,-0.905C-1.377,-1.153 -1.292,-1.531 -1.191,-1.976C-0.804,-2.092 -0.401,-2.212 0,-2.332" style="fill:rgb(57,86,124);fill-rule:nonzero;"/>
            </g>
            <g transform="matrix(1,0,0,1,545.203,120.152)">
                <path d="M0,1.987C-0.27,2.202 -0.584,2.241 -0.914,2.214C-1.144,2.063 -1.372,1.911 -1.601,1.759C-1.677,1.608 -1.753,1.457 -1.829,1.305L-1.829,0.623C-1.753,0.548 -1.677,0.472 -1.601,0.396C-1.077,-0.254 -0.472,-0.122 0.165,0.223C0.454,0.607 0.495,1.061 0.457,1.532C0.305,1.684 0.152,1.835 0,1.987" style="fill:rgb(57,86,124);fill-rule:nonzero;"/>
            </g>
            <g transform="matrix(1,0,0,1,520.365,120.341)">
                <path d="M0,1.99C-0.203,1.787 -0.363,1.629 -0.529,1.464L-0.529,0.523C-0.359,0.385 -0.156,0.22 0.114,0L0.971,0C1.15,0.179 1.31,0.338 1.496,0.522L1.496,1.484C1.342,1.636 1.183,1.795 0.986,1.99L0,1.99Z" style="fill:rgb(50,81,120);fill-rule:nonzero;"/>
            </g>
            <g transform="matrix(1,0,0,1,464.024,140.631)">
                <path d="M0,4.606C-0.128,4.734 -0.209,4.814 -0.317,4.922C-0.432,4.79 -0.625,4.668 -0.641,4.526C-0.684,4.117 -0.655,3.701 -0.655,3.287L-0.655,-0.283C-0.443,-0.293 -0.237,-0.304 0,-0.316L0,4.606Z" style="fill:rgb(50,81,120);fill-rule:nonzero;"/>
            </g>
            <g transform="matrix(0.999845,-0.0176029,-0.0176029,-0.999845,534.108,145.549)">
                <path d="M-0.01,0.001C-0.324,0.015 -0.554,0.256 -0.553,0.569C-0.553,0.879 -0.318,1.124 -0.01,1.137C0.375,1.154 0.627,0.892 0.589,0.511C0.56,0.207 0.301,-0.014 -0.01,0.001" style="fill:rgb(90,109,144);fill-rule:nonzero;"/>
            </g>
            <g transform="matrix(0.941542,0.336897,0.336897,-0.941542,480.964,145.529)">
                <path d="M0.207,-0.02C-0.017,0.085 -0.154,0.15 -0.291,0.213C-0.474,0.929 -0.474,0.929 0.207,1.224C0.357,1.079 0.506,0.936 0.678,0.77C0.53,0.524 0.367,0.248 0.207,-0.02" style="fill:rgb(90,109,144);fill-rule:nonzero;"/>
            </g>
            <g transform="matrix(0.136426,-0.99065,-0.99065,-0.136426,505.808,144.499)">
                <path d="M-0.649,-0.403C-0.781,-0.3 -0.924,-0.188 -1.124,-0.032C-0.962,0.225 -0.808,0.467 -0.649,0.719C-0.447,0.664 -0.259,0.613 -0.068,0.562C0.085,-0.173 0.089,-0.177 -0.649,-0.403" style="fill:rgb(67,93,130);fill-rule:nonzero;"/>
            </g>
            <g transform="matrix(0,-1,-1,0,468.598,139.181)">
                <rect x="0.035" y="0.009" width="0.832" height="0.858" style="fill:rgb(67,93,130);"/>
            </g>
            <g transform="matrix(1,0,0,1,514.873,139.241)">
                <path d="M0,-0.945L1.031,-0.945L1.031,-0.095C0.829,-0.084 0.559,0 0.34,-0.071C-0.075,-0.206 0.306,-0.601 0,-0.945" style="fill:rgb(67,93,130);fill-rule:nonzero;"/>
            </g>
            <g transform="matrix(0.118864,-0.992911,-0.992911,-0.118864,463.932,138.143)">
                <path d="M-0.719,-0.474C-0.867,-0.233 -1.014,0.007 -1.138,0.21C-0.973,0.437 -0.867,0.583 -0.719,0.788C-0.519,0.657 -0.342,0.542 -0.191,0.442C-0.098,-0.015 -0.202,-0.324 -0.719,-0.474" style="fill:rgb(90,109,144);fill-rule:nonzero;"/>
            </g>
            <g transform="matrix(-0.00521602,-0.999986,-0.999986,0.00521602,474.087,138.05)">
                <path d="M-0.671,-0.675C-0.904,-0.378 -1.017,-0.234 -1.136,-0.084C-1.163,0.272 -1.073,0.566 -0.671,0.667C-0.284,0.538 -0.177,0.254 -0.213,-0.02C-0.364,-0.238 -0.47,-0.388 -0.671,-0.675" style="fill:rgb(90,109,144);fill-rule:nonzero;"/>
            </g>
            <g transform="matrix(-1,0,0,1,475.012,138.241)">
                <path d="M-0.892,0.925L0,0.925C-0.032,0.701 -0.008,0.476 -0.097,0.31C-0.254,0.015 -0.553,0 -0.892,0.054L-0.892,0.925Z" style="fill:rgb(67,93,130);fill-rule:nonzero;"/>
            </g>
            <g transform="matrix(1,0,0,1,492.628,143.722)">
                <path d="M0,-0.901C-0.052,-0.736 -0.109,-0.573 -0.152,-0.406C-0.187,-0.271 -0.204,-0.13 -0.229,0.008L-0.576,0.008C-0.696,-0.234 -0.818,-0.481 -0.935,-0.714C-0.872,-0.793 -0.832,-0.891 -0.786,-0.894C-0.524,-0.909 -0.262,-0.901 0,-0.901" style="fill:rgb(249,249,249);fill-rule:nonzero;"/>
            </g>
            <g transform="matrix(1,0,0,1,543.831,127.594)">
                <path d="M0,-1.591C0.148,-1.493 0.297,-1.395 0.438,-1.3L0.438,0L0,0C0.07,-0.121 0.141,-0.241 0.182,-0.313C0.118,-0.762 0.06,-1.176 0,-1.591" style="fill:rgb(249,249,249);fill-rule:nonzero;"/>
            </g>
            <g transform="matrix(1,0,0,1,491.027,140.861)">
                <path d="M0,0.37C0.054,-0.06 0.433,0.251 0.687,0.042L0.687,-0.312L1.214,-0.312C1.057,0.062 0.941,0.335 0.795,0.682C0.512,0.571 0.256,0.471 0,0.37" style="fill:rgb(249,249,249);fill-rule:nonzero;"/>
            </g>
            <g transform="matrix(1,0,0,1,489.428,145.322)">
                <path d="M0,-0.909C0.229,-0.606 0.457,-0.303 0.686,0L-0.181,0C-0.206,-0.319 -0.409,-0.649 0,-0.909" style="fill:rgb(249,249,249);fill-rule:nonzero;"/>
            </g>
            <g transform="matrix(-0.783771,0.62105,0.62105,0.783771,544.502,122.521)">
                <path d="M0.326,-1.037C0.241,-0.775 0.156,-0.515 0.07,-0.253L0.326,0.07C0.491,-0.041 0.662,-0.154 0.899,-0.313L0.326,-1.037Z" style="fill:rgb(249,249,249);fill-rule:nonzero;"/>
            </g>
            <g transform="matrix(1,0,0,1,552.06,132.139)">
                <path d="M0,1.364C0.206,1.197 0.413,1.03 0.686,0.809L0.686,0C0.762,0.059 0.9,0.115 0.904,0.178C0.925,0.548 0.914,0.919 0.914,1.364L0,1.364Z" style="fill:rgb(249,249,249);fill-rule:nonzero;"/>
            </g>
            <g transform="matrix(0,-1,-1,0,535.943,126.573)">
                <path d="M-0.112,0.798L0.798,0.798L0.798,0.112L0.21,0.112C0.085,0.377 -0.013,0.587 -0.112,0.798" style="fill:rgb(249,249,249);fill-rule:nonzero;"/>
            </g>
            <g transform="matrix(1,0,0,1,539.717,126.699)">
                <rect x="0" y="-0.469" width="0.686" height="0.411" style="fill:rgb(249,249,249);"/>
            </g>
            <g transform="matrix(1,0,0,1,543.374,121.519)">
                <path d="M0,-0.517L0,-0.062C-0.251,-0.067 -0.567,0 -0.395,-0.517L0,-0.517Z" style="fill:rgb(249,249,249);fill-rule:nonzero;"/>
            </g>
            <g transform="matrix(1,0,0,1,537.202,133.048)">
                <path d="M0,0.455C0.229,0.304 0.457,0.152 0.686,0L0.686,0.455L0,0.455Z" style="fill:rgb(249,249,249);fill-rule:nonzero;"/>
            </g>
            <g transform="matrix(1,0,0,1,550.003,121.003)">
                <path d="M0,0.682L0,0C0.313,0.229 0.313,0.453 0,0.682" style="fill:rgb(249,249,249);fill-rule:nonzero;"/>
            </g>
            <g transform="matrix(1,0,0,1,545.203,121.684)">
                <path d="M0,0.455C0.152,0.303 0.305,0.152 0.457,0L0.457,0.455L0,0.455Z" style="fill:rgb(249,249,249);fill-rule:nonzero;"/>
            </g>
            <g transform="matrix(1,0,0,1,550.003,120.051)">
                <path d="M0,0.724L0,0C0.282,0.426 0.282,0.426 0,0.724" style="fill:rgb(249,249,249);fill-rule:nonzero;"/>
            </g>
            <g transform="matrix(1,0,0,1,536.974,131.458)">
                <path d="M0,0.227L-0.457,0.227L-0.173,0L0,0.227Z" style="fill:rgb(249,249,249);fill-rule:nonzero;"/>
            </g>
            <g transform="matrix(1,0,0,1,537.431,125.548)">
                <path d="M0,0.227C0.02,-0.113 0.284,0.034 0.457,-0C0.438,0.34 0.174,0.193 0,0.227" style="fill:rgb(249,249,249);fill-rule:nonzero;"/>
            </g>
            <g transform="matrix(1,0,0,1,535.374,130.775)">
                <path d="M0,0.455C-0.342,0.436 -0.194,0.173 -0.229,0C0.113,0.02 -0.035,0.283 0,0.455" style="fill:rgb(249,249,249);fill-rule:nonzero;"/>
            </g>
            <g transform="matrix(1,0,0,1,550.231,123.502)">
                <path d="M0,0.455C-0.342,0.436 -0.193,0.173 -0.229,0C0.114,0.02 -0.034,0.283 0,0.455" style="fill:rgb(249,249,249);fill-rule:nonzero;"/>
            </g>
            <g transform="matrix(1,0,0,1,490.57,144.185)">
                <path d="M0,0.455C-0.342,0.435 -0.194,0.173 -0.229,0C0.113,0.02 -0.034,0.283 0,0.455" style="fill:rgb(249,249,249);fill-rule:nonzero;"/>
            </g>
            <g transform="matrix(1,0,0,1,491.714,144.389)">
                <path d="M0,0.478L0,0.25C0.034,0.178 0.068,0.105 0.117,0C0.265,0.249 0.317,0.423 0,0.478" style="fill:rgb(249,249,249);fill-rule:nonzero;"/>
            </g>
            <g transform="matrix(1,0,0,1,538.803,131.458)">
                <path d="M0,-0.455C0.342,-0.435 0.194,-0.173 0.229,0C-0.113,-0.02 0.034,-0.283 0,-0.455" style="fill:rgb(249,249,249);fill-rule:nonzero;"/>
            </g>
            <g transform="matrix(1,0,0,1,539.488,125.321)">
                <path d="M0,-0.227L-0.229,0L0,-0.227Z" style="fill:rgb(249,249,249);fill-rule:nonzero;"/>
            </g>
            <g transform="matrix(1,0,0,1,492.628,141.418)">
                <path d="M0,-0.188L0.229,-0.188C0.178,-0.125 0.126,-0.063 0.075,0C0.05,-0.063 0.025,-0.125 0,-0.188" style="fill:rgb(249,249,249);fill-rule:nonzero;"/>
            </g>
            <g transform="matrix(1,0,0,1,543.145,125.775)">
                <path d="M0,-0.227L0.229,0L0,-0.227Z" style="fill:rgb(249,249,249);fill-rule:nonzero;"/>
            </g>
            <g transform="matrix(1,0,0,1,495.371,142.367)">
                <path d="M0,-0.227L-0.229,0L0,-0.227Z" style="fill:rgb(249,249,249);fill-rule:nonzero;"/>
            </g>
            <g transform="matrix(1,0,0,1,548.175,131.003)">
                <path d="M0,-0.228L0,0C-0.063,-0.051 -0.127,-0.102 -0.189,-0.153C-0.127,-0.178 -0.063,-0.203 0,-0.228" style="fill:rgb(249,249,249);fill-rule:nonzero;"/>
            </g>
            <g transform="matrix(-1,0,0,1,1077.38,-578.294)">
                <rect x="538.651" y="709.978" width="0.076" height="0.228" style="fill:rgb(249,249,249);"/>
            </g>
            <g transform="matrix(1,0,0,1,536.974,125.963)">
                <path d="M0,-0.188L0.229,-0.188C0.178,-0.125 0.127,-0.062 0.075,0C0.051,-0.062 0.025,-0.125 0,-0.188" style="fill:rgb(249,249,249);fill-rule:nonzero;"/>
            </g>
            <g transform="matrix(1,0,0,1,539.26,132.367)">
                <path d="M0,-0.228C0.076,-0.152 0.152,-0.076 0.229,0C0.152,-0.076 0.076,-0.152 0,-0.228" style="fill:rgb(249,249,249);fill-rule:nonzero;"/>
            </g>
            <g transform="matrix(1,0,0,1,537.888,132.593)">
                <path d="M0,0.228L0,0L0.19,0.153C0.127,0.178 0.063,0.203 0,0.228" style="fill:rgb(249,249,249);fill-rule:nonzero;"/>
            </g>
            <g transform="matrix(1,0,0,1,551.146,133.691)">
                <path d="M0,-0.188L0.229,-0.188C0.177,-0.125 0.126,-0.063 0.075,0C0.05,-0.063 0.024,-0.125 0,-0.188" style="fill:rgb(249,249,249);fill-rule:nonzero;"/>
            </g>
            <g transform="matrix(1,0,0,1,550.461,133.691)">
                <path d="M0,-0.188L0.229,-0.188C0.177,-0.125 0.126,-0.063 0.075,0C0.05,-0.063 0.024,-0.125 0,-0.188" style="fill:rgb(249,249,249);fill-rule:nonzero;"/>
            </g>
            <g transform="matrix(1,0,0,1,536.517,133.691)">
                <path d="M0,-0.188L0.229,-0.188C0.178,-0.125 0.126,-0.063 0.075,0C0.05,-0.063 0.025,-0.125 0,-0.188" style="fill:rgb(249,249,249);fill-rule:nonzero;"/>
            </g>
            <g transform="matrix(1,0,0,1,543.602,120.776)">
                <path d="M0,-0.228C-0.076,-0.152 -0.152,-0.076 -0.229,0C-0.152,-0.076 -0.076,-0.152 0,-0.228" style="fill:rgb(249,249,249);fill-rule:nonzero;"/>
            </g>
            <g transform="matrix(1,0,0,1,539.945,133.048)">
                <path d="M0,-0.227L0.229,0L0,-0.227Z" style="fill:rgb(249,249,249);fill-rule:nonzero;"/>
            </g>
            <g transform="matrix(1,0,0,1,495.143,141.685)">
                <path d="M0,-0.227L0.229,0L0,-0.227Z" style="fill:rgb(249,249,249);fill-rule:nonzero;"/>
            </g>
            <g transform="matrix(1,0,0,1,434.413,120.356)">
                <path d="M0,5.381C-0.117,5.264 -0.197,5.184 -0.313,5.069L-0.313,2.497L-2.991,2.497L-2.991,0L1.909,0C1.97,0.067 2.071,0.177 2.192,0.309L2.192,5.381L0,5.381Z" style="fill:rgb(245,249,252);fill-rule:nonzero;"/>
            </g>
            <g transform="matrix(1,0,0,1,426.07,130.259)">
                <path d="M0,0.745L2.744,0.745L2.744,2.96L-2.438,2.96L-2.438,-2.179C-2.081,-2.189 -1.68,-2.205 -1.277,-2.21C-0.864,-2.215 -0.451,-2.211 0,-2.211L0,0.745Z" style="fill:rgb(253,253,253);fill-rule:nonzero;"/>
            </g>
            <g transform="matrix(1,0,0,1,428.852,125.665)">
                <path d="M0,-5.365L0,-2.85C-0.883,-2.835 -1.774,-2.85 -2.703,-2.842L-2.703,-0.256C-2.844,-0.131 -2.956,-0.031 -3.09,0.089L-5.257,0.089C-5.257,-0.864 -5.288,-1.799 -5.246,-2.73C-5.219,-3.342 -4.88,-3.903 -4.507,-4.33C-4.158,-4.728 -3.643,-4.989 -3.047,-5.161C-2.038,-5.454 -1.061,-5.239 0,-5.365" style="fill:rgb(245,249,252);fill-rule:nonzero;"/>
            </g>
            <g transform="matrix(1,0,0,1,436.588,130.253)">
                <path d="M0,0.854C-0.418,1.733 -0.908,2.574 -2.017,3.004L-5.184,3.004L-5.184,0.789C-4.419,0.681 -3.596,0.803 -2.683,0.719C-2.62,0.514 -2.497,0.284 -2.488,0.051C-2.461,-0.664 -2.479,-1.379 -2.479,-2.15L0,-2.15L0,0.854Z" style="fill:rgb(253,253,253);fill-rule:nonzero;"/>
            </g>
            <g transform="matrix(1,0,0,1,452.625,123.518)">
                <path d="M0,1.506C-0.294,1.875 -0.61,2.274 -0.933,2.679L-4.286,2.679L-4.286,-1.152C-3.489,-1.152 -2.665,-1.134 -1.842,-1.158C-1.338,-1.173 -0.933,-1.014 -0.554,-0.69C-0.161,-0.354 -0.173,0.14 -0.019,0.561C0.079,0.827 0,1.157 0,1.506" style="fill:rgb(249,249,249);fill-rule:nonzero;"/>
            </g>
            <g transform="matrix(1,0,0,1,541.669,129.667)">
                <path d="M0,2.029C-0.273,1.754 -0.539,1.485 -0.81,1.213L-0.81,0.27C-0.559,0.11 -0.286,-0.064 -0.035,-0.224L2.594,-0.224L2.594,1.702C1.785,2.253 0.865,1.927 0,2.029" style="fill:rgb(249,249,249);fill-rule:nonzero;"/>
            </g>
            <g transform="matrix(1,0,0,1,462.216,129.877)">
                <path d="M0,1.533C-0.099,1.056 -0.192,0.602 -0.287,0.145C-0.044,-0.062 0.157,-0.232 0.404,-0.442L3.177,-0.442L3.177,1.487C2.188,1.89 1.164,1.975 0,1.533" style="fill:rgb(249,249,249);fill-rule:nonzero;"/>
            </g>
            <g transform="matrix(1,0,0,1,525.823,125.548)">
                <path d="M0,2.235C-0.06,0.584 0.543,0 2.281,0C3.338,0.368 3.59,1.204 3.611,2.235L0,2.235Z" style="fill:rgb(242,242,245);fill-rule:nonzero;"/>
            </g>
            <g transform="matrix(1,0,0,1,481.869,127.711)">
                <path d="M0,-2.149C1.707,-2.304 2.391,-1.799 2.536,0.076C1.949,0.155 1.354,0.098 0.765,0.108C0.163,0.119 -0.438,0.11 -1.021,0.11C-1.374,-0.4 -0.998,-0.847 -0.859,-1.236C-0.721,-1.624 -0.254,-1.895 0,-2.149" style="fill:rgb(242,242,245);fill-rule:nonzero;"/>
            </g>
            <g transform="matrix(1,0,0,1,505.439,131.546)">
                <path d="M0,-5.984C0.954,-6.19 1.665,-5.716 2.22,-5.015C2.614,-4.099 2.482,-3.17 2.507,-2.253C2.521,-1.66 2.271,-1.157 2.071,-0.618C1.865,-0.061 1.425,0.035 0.997,0.12C0.56,0.206 0.092,0.139 -0.326,0.111C-1.272,-0.135 -1.314,-0.922 -1.483,-1.657C-1.694,-2.574 -1.674,-3.484 -1.504,-4.394C-1.359,-5.165 -0.852,-5.655 0,-5.984" style="fill:rgb(249,249,249);fill-rule:nonzero;"/>
            </g>
            <g transform="matrix(1,0,0,1,510.262,144.302)">
                <path d="M0,-5.134C1.024,-5.041 2.167,-5.448 2.692,-4.077L2.692,-0.638C2.344,-0.345 1.931,0.004 1.562,0.314L0,0.314L0,-5.134Z" style="fill:rgb(253,253,253);fill-rule:nonzero;"/>
            </g>
            <g transform="matrix(1,0,0,1,530.569,141.046)">
                <path d="M0,3.824C-0.891,3.516 -1.228,2.892 -1.146,1.989C-1.107,1.578 -1.139,1.162 -1.139,0.806C-0.968,0.517 -0.822,0.272 -0.661,0L1.124,0L1.124,3.368C0.77,3.512 0.382,3.669 0,3.824" style="fill:rgb(249,249,249);fill-rule:nonzero;"/>
            </g>
            <g transform="matrix(1,0,0,1,500.171,141.243)">
                <path d="M0,3.306C-0.435,3.438 -0.739,3.605 -1.044,3.603C-1.345,3.602 -1.645,3.431 -2.001,3.317C-2.558,2.413 -2.16,1.348 -2.31,0.346C-2.102,0.148 -1.91,-0.035 -1.633,-0.299C-1.149,-0.218 -0.586,-0.123 0,-0.025C0,1.176 0.001,2.287 0,3.306" style="fill:rgb(249,249,249);fill-rule:nonzero;"/>
            </g>
            <g transform="matrix(1,0,0,1,461.075,141.287)">
                <path d="M0,3.246C-0.733,3.613 -1.376,3.553 -2.031,3.266L-2.031,0.035C-1.503,-0.367 -0.908,-0.288 -0.329,-0.278C-0.164,-0.114 -0.003,0.046 0.245,0.292C0.136,1.222 0.458,2.254 0,3.246" style="fill:rgb(249,249,249);fill-rule:nonzero;"/>
            </g>
            <g transform="matrix(0,-1,-1,0,475.229,145.036)">
                <path d="M0.461,1.555L1.668,1.555C2.142,0.931 1.946,0.236 1.994,-0.461L0.541,-0.461C-0.127,0.2 0.265,0.868 0.461,1.555" style="fill:rgb(242,242,245);fill-rule:nonzero;"/>
            </g>
            <g transform="matrix(0.454696,-0.890647,-0.890647,-0.454696,519.915,143.246)">
                <path d="M-1.114,-0.685C-1.755,-0.1 -2.336,0.47 -1.899,1.422L-1.114,1.822C-0.322,1.498 -0.187,0.675 0.232,0.003L-1.114,-0.685Z" style="fill:rgb(242,242,245);fill-rule:nonzero;"/>
            </g>
            <g transform="matrix(1,0,0,1,493.089,143.794)">
                <path d="M0,0.534L0,-0.19C0.182,-0.352 0.379,-0.528 0.59,-0.716L2.255,-0.716L2.255,0.758C1.493,1.25 0.769,1.192 0,0.534" style="fill:rgb(242,242,245);fill-rule:nonzero;"/>
            </g>
            <g transform="matrix(1,0,0,1,456.511,141.809)">
                <path d="M0,2.343C-0.377,2.592 -0.792,2.866 -1.214,3.144C-1.598,2.941 -1.909,2.776 -2.167,2.64C-2.579,1.822 -2.525,1.014 -2.509,0.202C-2.258,-0.14 -2.001,-0.49 -1.772,-0.801L-0.565,-0.801C-0.142,-0.395 0.05,0.082 0.008,0.673C-0.029,1.2 0,1.731 0,2.343" style="fill:rgb(249,249,249);fill-rule:nonzero;"/>
            </g>
            <g transform="matrix(1,0,0,1,525.245,144.869)">
                <path d="M0,-3.921C0.497,-3.852 1.034,-3.776 1.508,-3.71C2.13,-2.829 1.937,-1.901 1.856,-1.049C1.807,-0.521 1.29,-0.088 0.638,0C0.026,-0.093 -0.363,-0.475 -0.613,-1.147C-0.503,-1.951 -0.925,-2.971 0,-3.921" style="fill:rgb(249,249,249);fill-rule:nonzero;"/>
            </g>
        </g>
    </g>
</svg>
