<?xml version="1.0" encoding="UTF-8" standalone="no"?>
<!DOCTYPE svg PUBLIC "-//W3C//DTD SVG 1.1//EN" "http://www.w3.org/Graphics/SVG/1.1/DTD/svg11.dtd">
<svg width="100%" height="100%" viewBox="0 0 938 335" version="1.1" xmlns="http://www.w3.org/2000/svg" xmlns:xlink="http://www.w3.org/1999/xlink" xml:space="preserve" xmlns:serif="http://www.serif.com/" style="fill-rule:evenodd;clip-rule:evenodd;stroke-linejoin:round;stroke-miterlimit:2;">
    <g transform="matrix(1,0,0,1,27.5355,290.335)">
        <g>
            <path d="M217.111,-29.288L217.111,0L154.238,0L154.238,-24.513C137.472,-6.261 117.469,2.865 94.23,2.865C78.101,2.865 63.855,-0.929 51.492,-8.516C39.13,-16.103 29.526,-26.423 22.682,-39.475C15.838,-52.527 12.415,-66.959 12.415,-82.77C12.415,-98.899 16.05,-113.755 23.319,-127.338C30.588,-140.921 40.642,-151.718 53.482,-159.729C66.322,-167.741 80.223,-171.747 95.185,-171.747C106.009,-171.747 116.275,-169.572 125.985,-165.221C135.694,-160.87 145.112,-154.026 154.238,-144.688L154.238,-210.903L121.926,-210.903L121.926,-239.873L186.868,-239.873L186.868,-29.288L217.111,-29.288ZM100.438,-26.423C110.625,-26.423 119.804,-29.129 127.975,-34.54C136.145,-39.952 142.565,-47.168 147.234,-56.188C151.903,-65.208 154.238,-74.864 154.238,-85.157C154.238,-95.556 151.903,-105.054 147.234,-113.649C142.565,-122.244 136.092,-129.036 127.815,-134.023C119.538,-139.011 110.2,-141.504 99.801,-141.504C89.72,-141.504 80.727,-138.825 72.821,-133.466C64.916,-128.107 58.682,-120.998 54.119,-112.137C49.556,-103.276 47.274,-93.806 47.274,-83.725C47.274,-72.901 49.609,-63.138 54.278,-54.437C58.947,-45.736 65.314,-38.891 73.378,-33.904C81.443,-28.916 90.463,-26.423 100.438,-26.423Z" style="fill-rule:nonzero;"/>
            <path d="M342.698,-206.287L313.41,-201.831C312.455,-212.654 308.317,-218.066 300.995,-218.066C295.795,-218.066 292.32,-216.209 290.569,-212.495C288.818,-208.781 287.943,-202.149 287.943,-192.599L287.943,-167.29L316.594,-167.29L316.594,-137.843L287.943,-137.843L287.943,-29.288L319.459,-29.288L319.459,0L230.482,0L230.482,-29.288L254.994,-29.288L254.994,-137.843L230.482,-137.843L230.482,-167.29L254.994,-167.29L254.994,-193.235C254.994,-208.516 258.735,-220.931 266.216,-230.482C273.697,-240.032 284.759,-244.807 299.403,-244.807C311.5,-244.807 321.236,-241.597 328.611,-235.177C335.986,-228.757 340.682,-219.127 342.698,-206.287Z" style="fill-rule:nonzero;"/>
            <path d="M475.607,-155.511L485.794,-167.29L506.964,-167.29L488.022,-144.369C495.663,-136.623 501.605,-127.471 505.85,-116.912C510.094,-106.354 512.217,-95.185 512.217,-83.406C512.217,-67.171 508.343,-52.315 500.597,-38.838C492.851,-25.361 482.292,-14.697 468.922,-6.844C455.551,1.008 440.748,4.934 424.513,4.934C415.175,4.934 406.049,3.634 397.135,1.035C388.221,-1.565 380.263,-5.253 373.259,-10.028L364.505,0L343.335,0L360.844,-20.852C353.097,-28.916 347.102,-38.334 342.857,-49.105C338.613,-59.875 336.49,-71.309 336.49,-83.406C336.49,-101.021 340.39,-116.514 348.19,-129.885C355.989,-143.255 366.574,-153.575 379.944,-160.844C393.315,-168.113 408.171,-171.747 424.513,-171.747C443.189,-171.747 460.22,-166.335 475.607,-155.511ZM383.446,-46.956L454.437,-130.044C445.736,-136.623 435.655,-139.913 424.194,-139.913C415.068,-139.913 406.314,-137.392 397.931,-132.352C389.548,-127.311 382.969,-120.467 378.194,-111.819C373.418,-103.17 371.031,-93.699 371.031,-83.406C371.031,-69.293 375.169,-57.143 383.446,-46.956ZM424.513,-27.059C434.275,-27.059 443.242,-29.606 451.413,-34.7C459.584,-39.793 465.951,-46.638 470.514,-55.233C475.076,-63.828 477.358,-73.219 477.358,-83.406C477.358,-96.034 473.538,-107.76 465.898,-118.583L395.066,-36.132C403.767,-30.084 413.583,-27.059 424.513,-27.059Z" style="fill-rule:nonzero;"/>
            <path d="M612.018,-25.786C626.768,-25.786 642.738,-32.949 659.929,-47.274L659.929,-137.843L630.323,-137.843L630.323,-167.29L692.877,-167.29L692.877,-29.288L721.528,-29.288L721.528,0L659.929,0L659.929,-19.26C640.616,-4.51 622.258,2.865 604.855,2.865C589.15,2.865 577.557,-1.804 570.076,-11.142C562.595,-20.48 558.854,-35.973 558.854,-57.62L558.854,-137.843L535.456,-137.843L535.456,-167.29L591.803,-167.29L591.803,-50.776C591.803,-42.181 593.368,-35.867 596.498,-31.834C599.629,-27.802 604.802,-25.786 612.018,-25.786Z" style="fill-rule:nonzero;"/>
            <path d="M802.07,-67.171L802.07,-29.288L838.52,-29.288L838.52,0L735.854,0L735.854,-29.288L769.439,-29.288L769.439,-137.843L735.854,-137.843L735.854,-167.29L795.543,-167.29L795.543,-129.407C802.229,-144.369 810.532,-154.795 820.454,-160.685C830.376,-166.574 844.569,-169.519 863.033,-169.519L870.514,-169.519L870.514,-136.252L863.351,-136.252C845.524,-136.252 832.259,-133.917 823.558,-129.248C814.856,-124.579 809.1,-117.522 806.288,-108.078C803.476,-98.634 802.07,-84.998 802.07,-67.171Z" style="fill-rule:nonzero;"/>
        </g>
    </g>
</svg>
