<?xml version="1.0" encoding="UTF-8" standalone="no"?><!DOCTYPE svg PUBLIC "-//W3C//DTD SVG 1.1//EN" "http://www.w3.org/Graphics/SVG/1.1/DTD/svg11.dtd"><svg width="100%" height="100%" viewBox="0 0 1042 1042" version="1.1" xmlns="http://www.w3.org/2000/svg" xmlns:xlink="http://www.w3.org/1999/xlink" xml:space="preserve" xmlns:serif="http://www.serif.com/" style="fill-rule:evenodd;clip-rule:evenodd;stroke-linejoin:round;stroke-miterlimit:2;"><rect id="safari-pinned-tab" x="0" y="0" width="1041.67" height="1041.67" style="fill:none;"/><g><path d="M685.509,320.208l0,-184.373l-134.633,0l-0,-120.706l270.593,0l-0,877.438l126.011,0l0,122.032l-261.971,0l0,-102.135c-69.859,76.049 -153.203,114.073 -250.033,114.073c-67.206,0 -126.564,-15.807 -178.074,-47.42c-9.849,-6.044 -19.277,-12.505 -28.285,-19.384l-46.723,54.866l-88.208,0l86.02,-101.013c-16.383,-19.077 -30.664,-40.232 -42.847,-63.465c-28.518,-54.384 -42.777,-114.516 -42.777,-180.395c-0,-67.206 15.143,-129.107 45.43,-185.701c30.287,-56.595 72.18,-101.583 125.68,-134.965c53.5,-33.382 111.421,-50.073 173.763,-50.073c45.099,-0 87.876,9.064 128.333,27.192c25.058,11.228 49.651,26.443 73.77,45.641l43.951,-51.612Zm-61.34,175.614l-303.829,356.787c8.786,7.601 18.204,14.509 28.254,20.725c33.603,20.781 71.186,31.171 112.747,31.171c42.446,0 80.692,-11.275 114.737,-33.824c34.045,-22.549 60.795,-52.615 80.249,-90.198c19.455,-37.582 29.182,-77.817 29.182,-120.705c0,-43.331 -9.727,-82.903 -29.182,-118.717c-9.081,-16.717 -19.8,-31.797 -32.158,-45.239Zm-52.543,-41.881c-33.537,-19.295 -71.185,-28.943 -112.938,-28.943c-42.003,0 -79.475,11.164 -112.415,33.493c-32.94,22.328 -58.916,51.952 -77.928,88.871c-19.012,36.919 -28.519,76.381 -28.519,118.385c0,45.098 9.728,85.776 29.182,122.032c2.36,4.397 4.824,8.681 7.391,12.848l295.227,-346.686Z" style="fill-rule:nonzero;"/></g></svg>