<?xml version="1.0" standalone="no"?>
<!DOCTYPE svg PUBLIC "-//W3C//DTD SVG 20010904//EN"
 "http://www.w3.org/TR/2001/REC-SVG-20010904/DTD/svg10.dtd">
<svg version="1.0" xmlns="http://www.w3.org/2000/svg"
 width="700.000000pt" height="700.000000pt" viewBox="0 0 700.000000 700.000000"
 preserveAspectRatio="xMidYMid meet">
<metadata>
Created by potrace 1.11, written by Peter Selinger 2001-2013
</metadata>
<g transform="translate(0.000000,700.000000) scale(0.100000,-0.100000)"
fill="#000000" stroke="none">
<path d="M3298 6935 c-2 -2 -42 -6 -90 -9 -48 -3 -102 -8 -120 -10 -18 -3 -51
-7 -73 -10 -73 -9 -259 -45 -340 -66 -44 -11 -89 -22 -100 -25 -197 -45 -640
-234 -821 -350 -30 -19 -57 -35 -60 -35 -6 0 -143 -91 -200 -134 -23 -17 -55
-40 -70 -51 -103 -74 -282 -234 -414 -370 -360 -373 -645 -854 -798 -1350 -37
-120 -75 -264 -86 -325 -2 -14 -11 -62 -20 -108 -9 -46 -19 -111 -22 -145 -3
-34 -7 -64 -9 -67 -6 -10 -19 -258 -19 -375 -1 -679 195 -1333 567 -1895 59
-88 218 -303 236 -320 3 -3 26 -27 50 -55 72 -81 232 -244 290 -294 30 -25 59
-51 65 -57 32 -31 183 -148 266 -205 277 -192 582 -344 899 -448 119 -39 368
-102 461 -116 25 -4 54 -9 65 -11 11 -2 43 -7 70 -10 28 -3 56 -7 62 -9 78
-25 638 -25 813 0 204 29 196 27 325 56 50 11 98 22 107 24 177 39 489 155
697 259 335 169 616 371 887 641 270 269 458 523 634 859 146 280 277 660 325
946 3 19 8 42 10 50 2 8 7 42 11 75 3 33 8 62 9 65 7 11 20 190 19 260 0 61
-5 85 -28 128 -35 68 -97 129 -166 161 l-55 25 -707 0 c-390 0 -708 3 -709 6
0 3 -3 19 -5 35 -28 191 -33 217 -69 335 -166 540 -569 963 -1099 1155 -53 19
-106 37 -118 39 -13 3 -65 14 -115 25 -130 27 -199 34 -343 35 -154 1 -258 -9
-375 -35 -49 -11 -97 -22 -106 -24 -125 -28 -345 -125 -484 -214 -456 -292
-754 -778 -810 -1321 -9 -80 -9 -291 0 -351 19 -134 28 -183 50 -269 14 -52
29 -104 34 -115 5 -11 19 -47 31 -80 36 -101 158 -327 201 -373 9 -10 18 -23
20 -29 2 -6 43 -57 91 -112 185 -212 428 -385 678 -481 47 -18 94 -36 105 -41
50 -20 246 -62 348 -74 99 -11 329 -12 397 -2 14 2 50 7 80 11 82 12 269 62
354 96 169 67 374 187 500 292 230 192 417 455 521 733 21 55 40 102 41 104 2
2 238 4 524 5 412 1 520 -2 520 -12 0 -7 -11 -58 -24 -115 -102 -425 -293
-803 -581 -1153 -76 -92 -280 -290 -384 -373 -416 -330 -873 -526 -1398 -596
-254 -35 -642 -22 -888 29 -738 152 -1356 568 -1789 1204 -31 45 -56 85 -56
88 0 2 -12 23 -26 45 -46 73 -142 272 -188 390 -73 187 -139 436 -161 607 -23
188 -27 237 -27 397 1 138 7 264 17 325 2 14 7 49 10 79 3 30 13 86 21 125 9
39 18 82 20 96 13 71 68 249 109 355 26 66 49 130 52 143 3 12 9 22 14 22 5 0
9 5 9 11 0 29 151 302 231 419 149 217 413 495 610 643 189 141 416 274 594
349 144 60 343 127 428 144 10 2 26 5 35 8 9 3 28 7 42 10 14 2 63 11 110 20
111 20 138 24 240 32 107 10 411 9 510 0 144 -15 406 -64 500 -95 14 -5 45
-15 70 -22 73 -21 257 -93 363 -142 205 -96 418 -235 617 -402 48 -40 275
-269 328 -330 52 -62 96 -92 159 -111 221 -67 429 95 419 326 -5 114 -48 180
-256 395 -475 494 -1123 848 -1780 974 -161 31 -178 34 -295 46 -38 4 -79 10
-90 12 -22 5 -492 13 -497 8z m349 -2330 c26 -3 49 -8 52 -10 3 -1 24 -6 46
-9 163 -25 388 -150 533 -296 358 -361 434 -901 187 -1334 -209 -367 -596
-585 -1009 -570 -81 3 -102 6 -193 23 -323 62 -639 313 -780 621 -33 71 -69
177 -77 225 -3 17 -10 53 -15 80 -5 28 -10 95 -10 150 -5 307 111 589 329 805
218 217 501 331 803 324 48 -1 108 -5 134 -9z"/>
</g>
</svg>
